G04 (created by PCBNEW (2013-07-07 BZR 4022)-stable) date Wed 10 May 2017 02:19:22 AM CDT*
%MOIN*%
G04 Gerber Fmt 3.4, Leading zero omitted, Abs format*
%FSLAX34Y34*%
G01*
G70*
G90*
G04 APERTURE LIST*
%ADD10C,0.00590551*%
%ADD11R,0.059X0.059*%
%ADD12O,0.059X0.059*%
%ADD13R,0.16X0.16*%
%ADD14C,0.16*%
%ADD15O,0.059X0.0885*%
%ADD16R,0.059X0.0885*%
%ADD17O,0.069X0.069*%
%ADD18C,0.23622*%
%ADD19R,0.069X0.069*%
%ADD20C,0.069*%
%ADD21C,0.059*%
%ADD22R,0.059X0.114*%
%ADD23R,0.114X0.059*%
%ADD24R,0.079X0.079*%
%ADD25C,0.079*%
%ADD26R,0.06X0.06*%
%ADD27C,0.06*%
G04 APERTURE END LIST*
G54D10*
G54D11*
X78000Y-41000D03*
G54D12*
X78000Y-42000D03*
X78000Y-43000D03*
X78000Y-44000D03*
X81000Y-44000D03*
X81000Y-43000D03*
X81000Y-41000D03*
X81000Y-42000D03*
X82000Y-45500D03*
X78000Y-45500D03*
X82000Y-44500D03*
X82000Y-40500D03*
X83000Y-40500D03*
X83000Y-44500D03*
X72000Y-40500D03*
X76000Y-40500D03*
X72000Y-42500D03*
X76000Y-42500D03*
X76000Y-41500D03*
X72000Y-41500D03*
G54D13*
X75000Y-39000D03*
G54D14*
X75000Y-36650D03*
X73150Y-37800D03*
G54D15*
X69500Y-41647D03*
X70500Y-41647D03*
G54D16*
X68500Y-41647D03*
G54D17*
X72000Y-35500D03*
X82500Y-35500D03*
G54D18*
X69000Y-36000D03*
X85500Y-36000D03*
X69000Y-52500D03*
X85500Y-52500D03*
G54D19*
X80000Y-36000D03*
G54D20*
X78000Y-36000D03*
X79000Y-36000D03*
G54D11*
X79000Y-48000D03*
G54D21*
X80000Y-49000D03*
X80000Y-48000D03*
X79000Y-49000D03*
G54D22*
X85000Y-43225D03*
X85000Y-41775D03*
G54D23*
X80225Y-39000D03*
X78775Y-39000D03*
X70225Y-43000D03*
X68775Y-43000D03*
G54D12*
X69500Y-45500D03*
X69500Y-49500D03*
X68500Y-49500D03*
X68500Y-45500D03*
G54D11*
X70500Y-46000D03*
G54D12*
X70500Y-47000D03*
X70500Y-48000D03*
X70500Y-49000D03*
X73500Y-49000D03*
X73500Y-48000D03*
X73500Y-46000D03*
X73500Y-47000D03*
G54D24*
X86500Y-48500D03*
G54D25*
X86500Y-46500D03*
G54D26*
X80500Y-53250D03*
G54D27*
X81500Y-53250D03*
G54D26*
X73000Y-53250D03*
G54D27*
X74000Y-53250D03*
M02*
