M48
;DRILL file {Pcbnew (2013-07-07 BZR 4022)-stable} date Wed 10 May 2017 02:19:32 AM CDT
;FORMAT={-:-/ absolute / inch / decimal}
FMAT,2
INCH,TZ
T1C0.025
T2C0.032
T3C0.040
T4C0.056
T5C0.108
T6C0.126
%
G90
G05
M72
T1
X7.25Y-4.5
X7.25Y-4.6
X7.45Y-4.35
X7.45Y-4.7
X7.45Y-4.9
X7.55Y-4.35
X7.55Y-4.65
X7.6Y-4.8
X7.7Y-4.2
X7.7Y-4.3
X7.85Y-4.475
X7.95Y-4.475
T2
X6.85Y-4.15
X6.85Y-4.3
X6.85Y-4.55
X6.85Y-4.95
X6.95Y-4.15
X6.95Y-4.55
X6.95Y-4.95
X7.05Y-4.15
X7.05Y-4.3
X7.05Y-4.6
X7.05Y-4.7
X7.05Y-4.8
X7.05Y-4.9
X7.2Y-4.05
X7.2Y-4.15
X7.2Y-4.25
X7.35Y-4.6
X7.35Y-4.7
X7.35Y-4.8
X7.35Y-4.9
X7.6Y-4.05
X7.6Y-4.15
X7.6Y-4.25
X7.8Y-4.1
X7.8Y-4.2
X7.8Y-4.3
X7.8Y-4.4
X7.8Y-4.55
X7.85Y-3.9
X8.05Y-3.9
X8.1Y-4.1
X8.1Y-4.2
X8.1Y-4.3
X8.1Y-4.4
X8.2Y-4.05
X8.2Y-4.45
X8.2Y-4.55
X8.3Y-4.05
X8.3Y-4.45
X8.5Y-4.15
X8.5Y-4.35
T3
X7.2Y-3.55
X7.3Y-5.325
X7.4Y-5.325
X7.8Y-3.6
X7.9Y-3.6
X7.9Y-4.8
X7.9Y-4.9
X8.Y-3.6
X8.Y-4.8
X8.Y-4.9
X8.05Y-5.325
X8.15Y-5.325
X8.25Y-3.55
T4
X8.65Y-4.65
X8.65Y-4.85
T5
X7.315Y-3.78
X7.5Y-3.665
X7.5Y-3.9
T6
X6.9Y-3.6
X6.9Y-5.25
X8.55Y-3.6
X8.55Y-5.25
T0
M30
