G04 (created by PCBNEW (2013-07-07 BZR 4022)-stable) date Wed 10 May 2017 02:19:22 AM CDT*
%MOIN*%
G04 Gerber Fmt 3.4, Leading zero omitted, Abs format*
%FSLAX34Y34*%
G01*
G70*
G90*
G04 APERTURE LIST*
%ADD10C,0.00590551*%
%ADD11R,0.059X0.059*%
%ADD12O,0.059X0.059*%
%ADD13R,0.16X0.16*%
%ADD14C,0.16*%
%ADD15O,0.059X0.0885*%
%ADD16R,0.059X0.0885*%
%ADD17O,0.069X0.069*%
%ADD18C,0.23622*%
%ADD19R,0.069X0.069*%
%ADD20C,0.069*%
%ADD21C,0.059*%
%ADD22R,0.059X0.114*%
%ADD23R,0.114X0.059*%
%ADD24R,0.079X0.079*%
%ADD25C,0.079*%
%ADD26R,0.06X0.06*%
%ADD27C,0.06*%
%ADD28C,0.035*%
%ADD29C,0.02*%
%ADD30C,0.01*%
G04 APERTURE END LIST*
G54D10*
G54D11*
X78000Y-41000D03*
G54D12*
X78000Y-42000D03*
X78000Y-43000D03*
X78000Y-44000D03*
X81000Y-44000D03*
X81000Y-43000D03*
X81000Y-41000D03*
X81000Y-42000D03*
X82000Y-45500D03*
X78000Y-45500D03*
X82000Y-44500D03*
X82000Y-40500D03*
X83000Y-40500D03*
X83000Y-44500D03*
X72000Y-40500D03*
X76000Y-40500D03*
X72000Y-42500D03*
X76000Y-42500D03*
X76000Y-41500D03*
X72000Y-41500D03*
G54D13*
X75000Y-39000D03*
G54D14*
X75000Y-36650D03*
X73150Y-37800D03*
G54D15*
X69500Y-41647D03*
X70500Y-41647D03*
G54D16*
X68500Y-41647D03*
G54D17*
X72000Y-35500D03*
X82500Y-35500D03*
G54D18*
X69000Y-36000D03*
X85500Y-36000D03*
X69000Y-52500D03*
X85500Y-52500D03*
G54D19*
X80000Y-36000D03*
G54D20*
X78000Y-36000D03*
X79000Y-36000D03*
G54D11*
X79000Y-48000D03*
G54D21*
X80000Y-49000D03*
X80000Y-48000D03*
X79000Y-49000D03*
G54D22*
X85000Y-43225D03*
X85000Y-41775D03*
G54D23*
X80225Y-39000D03*
X78775Y-39000D03*
X70225Y-43000D03*
X68775Y-43000D03*
G54D12*
X69500Y-45500D03*
X69500Y-49500D03*
X68500Y-49500D03*
X68500Y-45500D03*
G54D11*
X70500Y-46000D03*
G54D12*
X70500Y-47000D03*
X70500Y-48000D03*
X70500Y-49000D03*
X73500Y-49000D03*
X73500Y-48000D03*
X73500Y-46000D03*
X73500Y-47000D03*
G54D24*
X86500Y-48500D03*
G54D25*
X86500Y-46500D03*
G54D26*
X80500Y-53250D03*
G54D27*
X81500Y-53250D03*
G54D26*
X73000Y-53250D03*
G54D27*
X74000Y-53250D03*
G54D28*
X76000Y-48000D03*
X74500Y-49000D03*
X77000Y-42000D03*
X77000Y-43000D03*
X75500Y-43500D03*
X74500Y-43500D03*
X72500Y-45000D03*
X72500Y-46000D03*
X79500Y-44750D03*
X78500Y-44750D03*
X75500Y-46500D03*
X74500Y-47000D03*
G54D29*
X75500Y-48000D02*
X76000Y-48000D01*
X74500Y-49000D02*
X75500Y-48000D01*
X77000Y-43000D02*
X77000Y-42000D01*
X74500Y-43500D02*
X75500Y-43500D01*
X72500Y-46000D02*
X72500Y-45000D01*
X78500Y-44750D02*
X79500Y-44750D01*
X75000Y-47000D02*
X75500Y-46500D01*
X74500Y-47000D02*
X75000Y-47000D01*
G54D10*
G36*
X86700Y-51676D02*
X86311Y-51287D01*
X85785Y-51069D01*
X85545Y-51068D01*
X85545Y-43745D01*
X85545Y-42605D01*
X85507Y-42513D01*
X85493Y-42500D01*
X85506Y-42486D01*
X85544Y-42394D01*
X85545Y-42295D01*
X85545Y-41155D01*
X85507Y-41063D01*
X85436Y-40993D01*
X85344Y-40955D01*
X85245Y-40954D01*
X84655Y-40954D01*
X84563Y-40992D01*
X84493Y-41063D01*
X84455Y-41155D01*
X84454Y-41254D01*
X84454Y-42394D01*
X84492Y-42486D01*
X84506Y-42499D01*
X84493Y-42513D01*
X84455Y-42605D01*
X84454Y-42704D01*
X84454Y-43844D01*
X84492Y-43936D01*
X84563Y-44006D01*
X84655Y-44044D01*
X84754Y-44045D01*
X85344Y-44045D01*
X85436Y-44007D01*
X85506Y-43936D01*
X85544Y-43844D01*
X85545Y-43745D01*
X85545Y-51068D01*
X85216Y-51068D01*
X84690Y-51286D01*
X84287Y-51688D01*
X84069Y-52214D01*
X84068Y-52783D01*
X84286Y-53309D01*
X84675Y-53700D01*
X83545Y-53700D01*
X83545Y-40510D01*
X83545Y-40489D01*
X83503Y-40280D01*
X83385Y-40103D01*
X83208Y-39985D01*
X83106Y-39965D01*
X83106Y-35500D01*
X83061Y-35272D01*
X82932Y-35079D01*
X82739Y-34950D01*
X82511Y-34905D01*
X82488Y-34905D01*
X82260Y-34950D01*
X82067Y-35079D01*
X81938Y-35272D01*
X81893Y-35500D01*
X81938Y-35727D01*
X82067Y-35920D01*
X82260Y-36049D01*
X82488Y-36095D01*
X82511Y-36095D01*
X82739Y-36049D01*
X82932Y-35920D01*
X83061Y-35727D01*
X83106Y-35500D01*
X83106Y-39965D01*
X83000Y-39944D01*
X82791Y-39985D01*
X82614Y-40103D01*
X82500Y-40275D01*
X82385Y-40103D01*
X82208Y-39985D01*
X82000Y-39944D01*
X81791Y-39985D01*
X81614Y-40103D01*
X81496Y-40280D01*
X81455Y-40489D01*
X81455Y-40510D01*
X81496Y-40719D01*
X81614Y-40896D01*
X81791Y-41014D01*
X82000Y-41055D01*
X82208Y-41014D01*
X82385Y-40896D01*
X82500Y-40724D01*
X82614Y-40896D01*
X82791Y-41014D01*
X83000Y-41055D01*
X83208Y-41014D01*
X83385Y-40896D01*
X83503Y-40719D01*
X83545Y-40510D01*
X83545Y-53700D01*
X83528Y-53700D01*
X83528Y-44634D01*
X83528Y-44365D01*
X83436Y-44173D01*
X83278Y-44031D01*
X83134Y-43971D01*
X83050Y-44020D01*
X83050Y-44450D01*
X83480Y-44450D01*
X83528Y-44365D01*
X83528Y-44634D01*
X83480Y-44550D01*
X83050Y-44550D01*
X83050Y-44979D01*
X83134Y-45028D01*
X83278Y-44968D01*
X83436Y-44826D01*
X83528Y-44634D01*
X83528Y-53700D01*
X82950Y-53700D01*
X82950Y-44979D01*
X82950Y-44550D01*
X82942Y-44550D01*
X82942Y-44450D01*
X82950Y-44450D01*
X82950Y-44020D01*
X82865Y-43971D01*
X82721Y-44031D01*
X82563Y-44173D01*
X82506Y-44293D01*
X82503Y-44280D01*
X82385Y-44103D01*
X82208Y-43985D01*
X82000Y-43944D01*
X81791Y-43985D01*
X81614Y-44103D01*
X81545Y-44208D01*
X81545Y-44010D01*
X81545Y-43989D01*
X81503Y-43780D01*
X81385Y-43603D01*
X81229Y-43500D01*
X81385Y-43396D01*
X81503Y-43219D01*
X81545Y-43010D01*
X81545Y-42989D01*
X81503Y-42780D01*
X81385Y-42603D01*
X81229Y-42500D01*
X81385Y-42396D01*
X81503Y-42219D01*
X81545Y-42010D01*
X81545Y-41989D01*
X81503Y-41780D01*
X81385Y-41603D01*
X81229Y-41500D01*
X81385Y-41396D01*
X81503Y-41219D01*
X81545Y-41010D01*
X81545Y-40989D01*
X81503Y-40780D01*
X81385Y-40603D01*
X81208Y-40485D01*
X81045Y-40453D01*
X81045Y-39245D01*
X81045Y-38655D01*
X81007Y-38563D01*
X80936Y-38493D01*
X80844Y-38455D01*
X80745Y-38454D01*
X80595Y-38454D01*
X80595Y-36295D01*
X80595Y-35605D01*
X80557Y-35513D01*
X80486Y-35443D01*
X80394Y-35405D01*
X80295Y-35404D01*
X79605Y-35404D01*
X79513Y-35442D01*
X79443Y-35513D01*
X79421Y-35565D01*
X79392Y-35536D01*
X79347Y-35581D01*
X79314Y-35481D01*
X79092Y-35400D01*
X78856Y-35410D01*
X78685Y-35481D01*
X78652Y-35581D01*
X79000Y-35929D01*
X79005Y-35923D01*
X79076Y-35994D01*
X79070Y-36000D01*
X79076Y-36005D01*
X79005Y-36076D01*
X79000Y-36070D01*
X78929Y-36141D01*
X78929Y-36000D01*
X78581Y-35652D01*
X78500Y-35678D01*
X78418Y-35652D01*
X78347Y-35722D01*
X78347Y-35581D01*
X78314Y-35481D01*
X78092Y-35400D01*
X77856Y-35410D01*
X77685Y-35481D01*
X77652Y-35581D01*
X78000Y-35929D01*
X78347Y-35581D01*
X78347Y-35722D01*
X78070Y-36000D01*
X78418Y-36347D01*
X78500Y-36321D01*
X78581Y-36347D01*
X78929Y-36000D01*
X78929Y-36141D01*
X78652Y-36418D01*
X78685Y-36518D01*
X78907Y-36599D01*
X79143Y-36589D01*
X79314Y-36518D01*
X79347Y-36418D01*
X79347Y-36418D01*
X79392Y-36463D01*
X79421Y-36434D01*
X79442Y-36486D01*
X79513Y-36556D01*
X79605Y-36594D01*
X79704Y-36595D01*
X80394Y-36595D01*
X80486Y-36557D01*
X80556Y-36486D01*
X80594Y-36394D01*
X80595Y-36295D01*
X80595Y-38454D01*
X79605Y-38454D01*
X79513Y-38492D01*
X79500Y-38506D01*
X79486Y-38492D01*
X79394Y-38454D01*
X79347Y-38454D01*
X78887Y-38455D01*
X78825Y-38517D01*
X78825Y-38950D01*
X78832Y-38950D01*
X78832Y-39050D01*
X78825Y-39050D01*
X78825Y-39482D01*
X78887Y-39545D01*
X79394Y-39545D01*
X79486Y-39507D01*
X79499Y-39493D01*
X79513Y-39506D01*
X79605Y-39544D01*
X79704Y-39545D01*
X80844Y-39545D01*
X80936Y-39507D01*
X81006Y-39436D01*
X81044Y-39344D01*
X81045Y-39245D01*
X81045Y-40453D01*
X81000Y-40444D01*
X80791Y-40485D01*
X80614Y-40603D01*
X80496Y-40780D01*
X80455Y-40989D01*
X80455Y-41010D01*
X80496Y-41219D01*
X80614Y-41396D01*
X80770Y-41500D01*
X80614Y-41603D01*
X80496Y-41780D01*
X80455Y-41989D01*
X80455Y-42010D01*
X80496Y-42219D01*
X80614Y-42396D01*
X80770Y-42500D01*
X80614Y-42603D01*
X80496Y-42780D01*
X80455Y-42989D01*
X80455Y-43010D01*
X80496Y-43219D01*
X80614Y-43396D01*
X80770Y-43500D01*
X80614Y-43603D01*
X80496Y-43780D01*
X80455Y-43989D01*
X80455Y-44010D01*
X80496Y-44219D01*
X80614Y-44396D01*
X80791Y-44514D01*
X81000Y-44555D01*
X81208Y-44514D01*
X81385Y-44396D01*
X81503Y-44219D01*
X81545Y-44010D01*
X81545Y-44208D01*
X81496Y-44280D01*
X81455Y-44489D01*
X81455Y-44510D01*
X81496Y-44719D01*
X81614Y-44896D01*
X81772Y-45001D01*
X81603Y-45114D01*
X81485Y-45291D01*
X81444Y-45500D01*
X81485Y-45708D01*
X81603Y-45885D01*
X81780Y-46003D01*
X81989Y-46045D01*
X82010Y-46045D01*
X82219Y-46003D01*
X82396Y-45885D01*
X82514Y-45708D01*
X82555Y-45500D01*
X82514Y-45291D01*
X82396Y-45114D01*
X82227Y-45001D01*
X82385Y-44896D01*
X82503Y-44719D01*
X82506Y-44706D01*
X82563Y-44826D01*
X82721Y-44968D01*
X82865Y-45028D01*
X82950Y-44979D01*
X82950Y-53700D01*
X81827Y-53700D01*
X81965Y-53561D01*
X82049Y-53359D01*
X82050Y-53141D01*
X81966Y-52938D01*
X81811Y-52784D01*
X81609Y-52700D01*
X81391Y-52699D01*
X81188Y-52783D01*
X81050Y-52922D01*
X81050Y-52900D01*
X81012Y-52808D01*
X80941Y-52738D01*
X80849Y-52700D01*
X80750Y-52699D01*
X80549Y-52699D01*
X80549Y-48080D01*
X80538Y-47864D01*
X80477Y-47715D01*
X80382Y-47688D01*
X80311Y-47759D01*
X80311Y-47617D01*
X80284Y-47522D01*
X80080Y-47450D01*
X79925Y-47458D01*
X79925Y-44665D01*
X79860Y-44509D01*
X79741Y-44389D01*
X79584Y-44325D01*
X79415Y-44324D01*
X79259Y-44389D01*
X79249Y-44400D01*
X78751Y-44400D01*
X78741Y-44389D01*
X78725Y-44383D01*
X78725Y-39482D01*
X78725Y-39050D01*
X78725Y-38950D01*
X78725Y-38517D01*
X78662Y-38455D01*
X78347Y-38454D01*
X78347Y-36418D01*
X78000Y-36070D01*
X77929Y-36141D01*
X77929Y-36000D01*
X77581Y-35652D01*
X77481Y-35685D01*
X77400Y-35907D01*
X77410Y-36143D01*
X77481Y-36314D01*
X77581Y-36347D01*
X77929Y-36000D01*
X77929Y-36141D01*
X77652Y-36418D01*
X77685Y-36518D01*
X77907Y-36599D01*
X78143Y-36589D01*
X78314Y-36518D01*
X78347Y-36418D01*
X78347Y-38454D01*
X78155Y-38454D01*
X78063Y-38492D01*
X77993Y-38563D01*
X77955Y-38655D01*
X77954Y-38754D01*
X77955Y-38887D01*
X78017Y-38950D01*
X78725Y-38950D01*
X78725Y-39050D01*
X78017Y-39050D01*
X77955Y-39112D01*
X77954Y-39245D01*
X77955Y-39344D01*
X77993Y-39436D01*
X78063Y-39507D01*
X78155Y-39545D01*
X78662Y-39545D01*
X78725Y-39482D01*
X78725Y-44383D01*
X78584Y-44325D01*
X78545Y-44325D01*
X78545Y-41245D01*
X78545Y-40655D01*
X78507Y-40563D01*
X78436Y-40493D01*
X78344Y-40455D01*
X78245Y-40454D01*
X77655Y-40454D01*
X77563Y-40492D01*
X77493Y-40563D01*
X77455Y-40655D01*
X77454Y-40754D01*
X77454Y-41344D01*
X77492Y-41436D01*
X77563Y-41506D01*
X77655Y-41544D01*
X77702Y-41544D01*
X77614Y-41603D01*
X77496Y-41780D01*
X77455Y-41989D01*
X77455Y-42010D01*
X77496Y-42219D01*
X77614Y-42396D01*
X77770Y-42500D01*
X77614Y-42603D01*
X77496Y-42780D01*
X77455Y-42989D01*
X77455Y-43010D01*
X77496Y-43219D01*
X77614Y-43396D01*
X77780Y-43507D01*
X77721Y-43531D01*
X77563Y-43673D01*
X77471Y-43865D01*
X77519Y-43950D01*
X77950Y-43950D01*
X77950Y-43942D01*
X78050Y-43942D01*
X78050Y-43950D01*
X78480Y-43950D01*
X78528Y-43865D01*
X78436Y-43673D01*
X78278Y-43531D01*
X78219Y-43507D01*
X78385Y-43396D01*
X78503Y-43219D01*
X78545Y-43010D01*
X78545Y-42989D01*
X78503Y-42780D01*
X78385Y-42603D01*
X78229Y-42500D01*
X78385Y-42396D01*
X78503Y-42219D01*
X78545Y-42010D01*
X78545Y-41989D01*
X78503Y-41780D01*
X78385Y-41603D01*
X78297Y-41545D01*
X78344Y-41545D01*
X78436Y-41507D01*
X78506Y-41436D01*
X78544Y-41344D01*
X78545Y-41245D01*
X78545Y-44325D01*
X78437Y-44324D01*
X78528Y-44134D01*
X78480Y-44050D01*
X78050Y-44050D01*
X78050Y-44479D01*
X78132Y-44527D01*
X78075Y-44665D01*
X78074Y-44834D01*
X78135Y-44979D01*
X78010Y-44955D01*
X77989Y-44955D01*
X77950Y-44962D01*
X77950Y-44479D01*
X77950Y-44050D01*
X77519Y-44050D01*
X77471Y-44134D01*
X77563Y-44326D01*
X77721Y-44468D01*
X77865Y-44528D01*
X77950Y-44479D01*
X77950Y-44962D01*
X77780Y-44996D01*
X77603Y-45114D01*
X77485Y-45291D01*
X77444Y-45500D01*
X77485Y-45708D01*
X77603Y-45885D01*
X77780Y-46003D01*
X77989Y-46045D01*
X78010Y-46045D01*
X78219Y-46003D01*
X78396Y-45885D01*
X78514Y-45708D01*
X78555Y-45500D01*
X78514Y-45291D01*
X78436Y-45174D01*
X78584Y-45175D01*
X78740Y-45110D01*
X78750Y-45100D01*
X79248Y-45100D01*
X79258Y-45110D01*
X79415Y-45174D01*
X79584Y-45175D01*
X79740Y-45110D01*
X79860Y-44991D01*
X79924Y-44834D01*
X79925Y-44665D01*
X79925Y-47458D01*
X79864Y-47461D01*
X79715Y-47522D01*
X79688Y-47617D01*
X80000Y-47929D01*
X80311Y-47617D01*
X80311Y-47759D01*
X80070Y-48000D01*
X80382Y-48311D01*
X80477Y-48284D01*
X80549Y-48080D01*
X80549Y-52699D01*
X80545Y-52699D01*
X80545Y-48892D01*
X80462Y-48691D01*
X80309Y-48538D01*
X80223Y-48502D01*
X80284Y-48477D01*
X80311Y-48382D01*
X80000Y-48070D01*
X79929Y-48141D01*
X79929Y-48000D01*
X79617Y-47688D01*
X79545Y-47708D01*
X79545Y-47655D01*
X79507Y-47563D01*
X79436Y-47493D01*
X79344Y-47455D01*
X79245Y-47454D01*
X78655Y-47454D01*
X78563Y-47492D01*
X78493Y-47563D01*
X78455Y-47655D01*
X78454Y-47754D01*
X78454Y-48344D01*
X78492Y-48436D01*
X78563Y-48506D01*
X78655Y-48544D01*
X78708Y-48545D01*
X78688Y-48617D01*
X79000Y-48929D01*
X79311Y-48617D01*
X79291Y-48545D01*
X79344Y-48545D01*
X79436Y-48507D01*
X79506Y-48436D01*
X79544Y-48344D01*
X79545Y-48291D01*
X79617Y-48311D01*
X79929Y-48000D01*
X79929Y-48141D01*
X79688Y-48382D01*
X79715Y-48477D01*
X79781Y-48500D01*
X79691Y-48537D01*
X79538Y-48690D01*
X79502Y-48776D01*
X79477Y-48715D01*
X79382Y-48688D01*
X79070Y-49000D01*
X79382Y-49311D01*
X79477Y-49284D01*
X79500Y-49218D01*
X79537Y-49308D01*
X79690Y-49461D01*
X79891Y-49544D01*
X80107Y-49545D01*
X80308Y-49462D01*
X80461Y-49309D01*
X80544Y-49108D01*
X80545Y-48892D01*
X80545Y-52699D01*
X80150Y-52699D01*
X80058Y-52737D01*
X79988Y-52808D01*
X79950Y-52900D01*
X79949Y-52999D01*
X79949Y-53599D01*
X79987Y-53691D01*
X79996Y-53700D01*
X79311Y-53700D01*
X79311Y-49382D01*
X79000Y-49070D01*
X78929Y-49141D01*
X78929Y-49000D01*
X78617Y-48688D01*
X78522Y-48715D01*
X78450Y-48919D01*
X78461Y-49135D01*
X78522Y-49284D01*
X78617Y-49311D01*
X78929Y-49000D01*
X78929Y-49141D01*
X78688Y-49382D01*
X78715Y-49477D01*
X78919Y-49549D01*
X79135Y-49538D01*
X79284Y-49477D01*
X79311Y-49382D01*
X79311Y-53700D01*
X77425Y-53700D01*
X77425Y-42915D01*
X77360Y-42759D01*
X77350Y-42749D01*
X77350Y-42251D01*
X77360Y-42241D01*
X77424Y-42084D01*
X77425Y-41915D01*
X77360Y-41759D01*
X77241Y-41639D01*
X77084Y-41575D01*
X76915Y-41574D01*
X76759Y-41639D01*
X76639Y-41758D01*
X76575Y-41915D01*
X76574Y-42084D01*
X76639Y-42240D01*
X76650Y-42250D01*
X76650Y-42748D01*
X76639Y-42758D01*
X76575Y-42915D01*
X76574Y-43084D01*
X76639Y-43240D01*
X76758Y-43360D01*
X76915Y-43424D01*
X77084Y-43425D01*
X77240Y-43360D01*
X77360Y-43241D01*
X77424Y-43084D01*
X77425Y-42915D01*
X77425Y-53700D01*
X76555Y-53700D01*
X76555Y-42500D01*
X76514Y-42291D01*
X76396Y-42114D01*
X76224Y-42000D01*
X76396Y-41885D01*
X76514Y-41708D01*
X76555Y-41500D01*
X76514Y-41291D01*
X76396Y-41114D01*
X76224Y-41000D01*
X76396Y-40885D01*
X76514Y-40708D01*
X76555Y-40500D01*
X76514Y-40291D01*
X76396Y-40114D01*
X76219Y-39996D01*
X76051Y-39963D01*
X76051Y-36851D01*
X76048Y-36433D01*
X75894Y-36061D01*
X75747Y-35973D01*
X75676Y-36044D01*
X75676Y-35902D01*
X75588Y-35755D01*
X75201Y-35598D01*
X74783Y-35601D01*
X74411Y-35755D01*
X74323Y-35902D01*
X75000Y-36579D01*
X75676Y-35902D01*
X75676Y-36044D01*
X75070Y-36650D01*
X75747Y-37326D01*
X75894Y-37238D01*
X76051Y-36851D01*
X76051Y-39963D01*
X76010Y-39955D01*
X75998Y-39955D01*
X76011Y-39941D01*
X76049Y-39849D01*
X76050Y-39750D01*
X76050Y-38150D01*
X76012Y-38058D01*
X75941Y-37988D01*
X75849Y-37950D01*
X75750Y-37949D01*
X75676Y-37949D01*
X75676Y-37397D01*
X75000Y-36720D01*
X74929Y-36791D01*
X74929Y-36650D01*
X74252Y-35973D01*
X74105Y-36061D01*
X73948Y-36448D01*
X73951Y-36866D01*
X74105Y-37238D01*
X74252Y-37326D01*
X74929Y-36650D01*
X74929Y-36791D01*
X74323Y-37397D01*
X74411Y-37544D01*
X74798Y-37701D01*
X75216Y-37698D01*
X75588Y-37544D01*
X75676Y-37397D01*
X75676Y-37949D01*
X74201Y-37949D01*
X74198Y-37583D01*
X74044Y-37211D01*
X73897Y-37123D01*
X73826Y-37194D01*
X73826Y-37052D01*
X73738Y-36905D01*
X73351Y-36748D01*
X72933Y-36751D01*
X72577Y-36898D01*
X72577Y-35642D01*
X72577Y-35357D01*
X72509Y-35191D01*
X72352Y-35020D01*
X72142Y-34922D01*
X72050Y-34969D01*
X72050Y-35450D01*
X72530Y-35450D01*
X72577Y-35357D01*
X72577Y-35642D01*
X72530Y-35550D01*
X72050Y-35550D01*
X72050Y-36030D01*
X72142Y-36077D01*
X72352Y-35979D01*
X72509Y-35808D01*
X72577Y-35642D01*
X72577Y-36898D01*
X72561Y-36905D01*
X72473Y-37052D01*
X73150Y-37729D01*
X73826Y-37052D01*
X73826Y-37194D01*
X73220Y-37800D01*
X73897Y-38476D01*
X73949Y-38444D01*
X73949Y-39849D01*
X73987Y-39941D01*
X74058Y-40011D01*
X74150Y-40049D01*
X74249Y-40050D01*
X75700Y-40050D01*
X75603Y-40114D01*
X75485Y-40291D01*
X75444Y-40500D01*
X75485Y-40708D01*
X75603Y-40885D01*
X75775Y-41000D01*
X75603Y-41114D01*
X75485Y-41291D01*
X75444Y-41500D01*
X75485Y-41708D01*
X75603Y-41885D01*
X75775Y-42000D01*
X75603Y-42114D01*
X75485Y-42291D01*
X75444Y-42500D01*
X75485Y-42708D01*
X75603Y-42885D01*
X75780Y-43003D01*
X75989Y-43045D01*
X76010Y-43045D01*
X76219Y-43003D01*
X76396Y-42885D01*
X76514Y-42708D01*
X76555Y-42500D01*
X76555Y-53700D01*
X76425Y-53700D01*
X76425Y-47915D01*
X76360Y-47759D01*
X76241Y-47639D01*
X76084Y-47575D01*
X75925Y-47574D01*
X75925Y-46415D01*
X75925Y-43415D01*
X75860Y-43259D01*
X75741Y-43139D01*
X75584Y-43075D01*
X75415Y-43074D01*
X75259Y-43139D01*
X75249Y-43150D01*
X74751Y-43150D01*
X74741Y-43139D01*
X74584Y-43075D01*
X74415Y-43074D01*
X74259Y-43139D01*
X74139Y-43258D01*
X74075Y-43415D01*
X74074Y-43584D01*
X74139Y-43740D01*
X74258Y-43860D01*
X74415Y-43924D01*
X74584Y-43925D01*
X74740Y-43860D01*
X74750Y-43850D01*
X75248Y-43850D01*
X75258Y-43860D01*
X75415Y-43924D01*
X75584Y-43925D01*
X75740Y-43860D01*
X75860Y-43741D01*
X75924Y-43584D01*
X75925Y-43415D01*
X75925Y-46415D01*
X75860Y-46259D01*
X75741Y-46139D01*
X75584Y-46075D01*
X75415Y-46074D01*
X75259Y-46139D01*
X75139Y-46258D01*
X75075Y-46415D01*
X75075Y-46429D01*
X74855Y-46650D01*
X74751Y-46650D01*
X74741Y-46639D01*
X74584Y-46575D01*
X74415Y-46574D01*
X74259Y-46639D01*
X74139Y-46758D01*
X74075Y-46915D01*
X74074Y-47084D01*
X74139Y-47240D01*
X74258Y-47360D01*
X74415Y-47424D01*
X74584Y-47425D01*
X74740Y-47360D01*
X74750Y-47350D01*
X75000Y-47350D01*
X75133Y-47323D01*
X75133Y-47323D01*
X75247Y-47247D01*
X75569Y-46925D01*
X75584Y-46925D01*
X75740Y-46860D01*
X75860Y-46741D01*
X75924Y-46584D01*
X75925Y-46415D01*
X75925Y-47574D01*
X75915Y-47574D01*
X75759Y-47639D01*
X75749Y-47650D01*
X75500Y-47650D01*
X75366Y-47676D01*
X75252Y-47752D01*
X74430Y-48574D01*
X74415Y-48574D01*
X74259Y-48639D01*
X74139Y-48758D01*
X74075Y-48915D01*
X74074Y-49084D01*
X74139Y-49240D01*
X74258Y-49360D01*
X74415Y-49424D01*
X74584Y-49425D01*
X74740Y-49360D01*
X74860Y-49241D01*
X74924Y-49084D01*
X74924Y-49070D01*
X75644Y-48350D01*
X75748Y-48350D01*
X75758Y-48360D01*
X75915Y-48424D01*
X76084Y-48425D01*
X76240Y-48360D01*
X76360Y-48241D01*
X76424Y-48084D01*
X76425Y-47915D01*
X76425Y-53700D01*
X74554Y-53700D01*
X74554Y-53331D01*
X74543Y-53113D01*
X74481Y-52962D01*
X74385Y-52934D01*
X74315Y-53005D01*
X74315Y-52864D01*
X74287Y-52768D01*
X74081Y-52695D01*
X74045Y-52697D01*
X74045Y-49010D01*
X74045Y-48989D01*
X74003Y-48780D01*
X73885Y-48603D01*
X73729Y-48500D01*
X73885Y-48396D01*
X74003Y-48219D01*
X74045Y-48010D01*
X74045Y-47989D01*
X74003Y-47780D01*
X73885Y-47603D01*
X73729Y-47500D01*
X73885Y-47396D01*
X74003Y-47219D01*
X74045Y-47010D01*
X74045Y-46989D01*
X74003Y-46780D01*
X73885Y-46603D01*
X73729Y-46500D01*
X73885Y-46396D01*
X74003Y-46219D01*
X74045Y-46010D01*
X74045Y-45989D01*
X74003Y-45780D01*
X73885Y-45603D01*
X73826Y-45564D01*
X73826Y-38547D01*
X73150Y-37870D01*
X73079Y-37941D01*
X73079Y-37800D01*
X72402Y-37123D01*
X72255Y-37211D01*
X72098Y-37598D01*
X72101Y-38016D01*
X72255Y-38388D01*
X72402Y-38476D01*
X73079Y-37800D01*
X73079Y-37941D01*
X72473Y-38547D01*
X72561Y-38694D01*
X72948Y-38851D01*
X73366Y-38848D01*
X73738Y-38694D01*
X73826Y-38547D01*
X73826Y-45564D01*
X73708Y-45485D01*
X73500Y-45444D01*
X73291Y-45485D01*
X73114Y-45603D01*
X72996Y-45780D01*
X72955Y-45989D01*
X72955Y-46010D01*
X72996Y-46219D01*
X73114Y-46396D01*
X73270Y-46500D01*
X73114Y-46603D01*
X72996Y-46780D01*
X72955Y-46989D01*
X72955Y-47010D01*
X72996Y-47219D01*
X73114Y-47396D01*
X73270Y-47500D01*
X73114Y-47603D01*
X72996Y-47780D01*
X72955Y-47989D01*
X72955Y-48010D01*
X72996Y-48219D01*
X73114Y-48396D01*
X73270Y-48500D01*
X73114Y-48603D01*
X72996Y-48780D01*
X72955Y-48989D01*
X72955Y-49010D01*
X72996Y-49219D01*
X73114Y-49396D01*
X73291Y-49514D01*
X73500Y-49555D01*
X73708Y-49514D01*
X73885Y-49396D01*
X74003Y-49219D01*
X74045Y-49010D01*
X74045Y-52697D01*
X73863Y-52706D01*
X73712Y-52768D01*
X73684Y-52864D01*
X74000Y-53179D01*
X74315Y-52864D01*
X74315Y-53005D01*
X74070Y-53250D01*
X74385Y-53565D01*
X74481Y-53537D01*
X74554Y-53331D01*
X74554Y-53700D01*
X74296Y-53700D01*
X74315Y-53635D01*
X74000Y-53320D01*
X73684Y-53635D01*
X73703Y-53700D01*
X73503Y-53700D01*
X73511Y-53691D01*
X73549Y-53599D01*
X73550Y-53546D01*
X73614Y-53565D01*
X73929Y-53250D01*
X73614Y-52934D01*
X73550Y-52953D01*
X73549Y-52900D01*
X73511Y-52808D01*
X73441Y-52737D01*
X73349Y-52699D01*
X73112Y-52700D01*
X73050Y-52762D01*
X73050Y-53200D01*
X73057Y-53200D01*
X73057Y-53300D01*
X73050Y-53300D01*
X73050Y-53307D01*
X72950Y-53307D01*
X72950Y-53300D01*
X72950Y-53200D01*
X72950Y-52762D01*
X72925Y-52737D01*
X72925Y-45915D01*
X72860Y-45759D01*
X72850Y-45749D01*
X72850Y-45251D01*
X72860Y-45241D01*
X72924Y-45084D01*
X72925Y-44915D01*
X72860Y-44759D01*
X72741Y-44639D01*
X72584Y-44575D01*
X72555Y-44575D01*
X72555Y-42500D01*
X72514Y-42291D01*
X72396Y-42114D01*
X72224Y-42000D01*
X72396Y-41885D01*
X72514Y-41708D01*
X72555Y-41500D01*
X72514Y-41291D01*
X72396Y-41114D01*
X72224Y-41000D01*
X72396Y-40885D01*
X72514Y-40708D01*
X72555Y-40500D01*
X72514Y-40291D01*
X72396Y-40114D01*
X72219Y-39996D01*
X72010Y-39955D01*
X71989Y-39955D01*
X71950Y-39962D01*
X71950Y-36030D01*
X71950Y-35550D01*
X71950Y-35450D01*
X71950Y-34969D01*
X71857Y-34922D01*
X71647Y-35020D01*
X71490Y-35191D01*
X71422Y-35357D01*
X71469Y-35450D01*
X71950Y-35450D01*
X71950Y-35550D01*
X71469Y-35550D01*
X71422Y-35642D01*
X71490Y-35808D01*
X71647Y-35979D01*
X71857Y-36077D01*
X71950Y-36030D01*
X71950Y-39962D01*
X71780Y-39996D01*
X71603Y-40114D01*
X71485Y-40291D01*
X71444Y-40500D01*
X71485Y-40708D01*
X71603Y-40885D01*
X71775Y-41000D01*
X71603Y-41114D01*
X71485Y-41291D01*
X71444Y-41500D01*
X71485Y-41708D01*
X71603Y-41885D01*
X71775Y-42000D01*
X71603Y-42114D01*
X71485Y-42291D01*
X71444Y-42500D01*
X71485Y-42708D01*
X71603Y-42885D01*
X71780Y-43003D01*
X71989Y-43045D01*
X72010Y-43045D01*
X72219Y-43003D01*
X72396Y-42885D01*
X72514Y-42708D01*
X72555Y-42500D01*
X72555Y-44575D01*
X72415Y-44574D01*
X72259Y-44639D01*
X72139Y-44758D01*
X72075Y-44915D01*
X72074Y-45084D01*
X72139Y-45240D01*
X72150Y-45250D01*
X72150Y-45748D01*
X72139Y-45758D01*
X72075Y-45915D01*
X72074Y-46084D01*
X72139Y-46240D01*
X72258Y-46360D01*
X72415Y-46424D01*
X72584Y-46425D01*
X72740Y-46360D01*
X72860Y-46241D01*
X72924Y-46084D01*
X72925Y-45915D01*
X72925Y-52737D01*
X72887Y-52700D01*
X72650Y-52699D01*
X72558Y-52737D01*
X72488Y-52808D01*
X72450Y-52900D01*
X72449Y-52999D01*
X72450Y-53137D01*
X72512Y-53200D01*
X72950Y-53200D01*
X72950Y-53300D01*
X72512Y-53300D01*
X72450Y-53362D01*
X72449Y-53500D01*
X72450Y-53599D01*
X72488Y-53691D01*
X72496Y-53700D01*
X71045Y-53700D01*
X71045Y-46245D01*
X71045Y-45655D01*
X71045Y-43245D01*
X71045Y-42655D01*
X71045Y-42655D01*
X71045Y-41808D01*
X71045Y-41486D01*
X71003Y-41277D01*
X70885Y-41101D01*
X70708Y-40982D01*
X70500Y-40941D01*
X70291Y-40982D01*
X70114Y-41101D01*
X70000Y-41272D01*
X69885Y-41101D01*
X69708Y-40982D01*
X69500Y-40941D01*
X69291Y-40982D01*
X69114Y-41101D01*
X69045Y-41205D01*
X69045Y-41155D01*
X69007Y-41063D01*
X68936Y-40993D01*
X68844Y-40955D01*
X68745Y-40954D01*
X68155Y-40954D01*
X68063Y-40992D01*
X67993Y-41063D01*
X67955Y-41155D01*
X67954Y-41254D01*
X67954Y-42139D01*
X67992Y-42231D01*
X68063Y-42301D01*
X68155Y-42339D01*
X68254Y-42340D01*
X68844Y-42340D01*
X68936Y-42302D01*
X69006Y-42231D01*
X69044Y-42139D01*
X69045Y-42089D01*
X69114Y-42193D01*
X69291Y-42312D01*
X69500Y-42353D01*
X69708Y-42312D01*
X69885Y-42193D01*
X70000Y-42022D01*
X70114Y-42193D01*
X70291Y-42312D01*
X70500Y-42353D01*
X70708Y-42312D01*
X70885Y-42193D01*
X71003Y-42017D01*
X71045Y-41808D01*
X71045Y-42655D01*
X71007Y-42563D01*
X70936Y-42493D01*
X70844Y-42455D01*
X70745Y-42454D01*
X69605Y-42454D01*
X69513Y-42492D01*
X69500Y-42506D01*
X69486Y-42493D01*
X69394Y-42455D01*
X69295Y-42454D01*
X68155Y-42454D01*
X68063Y-42492D01*
X67993Y-42563D01*
X67955Y-42655D01*
X67954Y-42754D01*
X67954Y-43344D01*
X67992Y-43436D01*
X68063Y-43506D01*
X68155Y-43544D01*
X68254Y-43545D01*
X69394Y-43545D01*
X69486Y-43507D01*
X69499Y-43493D01*
X69513Y-43506D01*
X69605Y-43544D01*
X69704Y-43545D01*
X70844Y-43545D01*
X70936Y-43507D01*
X71006Y-43436D01*
X71044Y-43344D01*
X71045Y-43245D01*
X71045Y-45655D01*
X71007Y-45563D01*
X70936Y-45493D01*
X70844Y-45455D01*
X70745Y-45454D01*
X70155Y-45454D01*
X70063Y-45492D01*
X70044Y-45511D01*
X70045Y-45510D01*
X70045Y-45489D01*
X70003Y-45280D01*
X69885Y-45103D01*
X69708Y-44985D01*
X69500Y-44944D01*
X69291Y-44985D01*
X69114Y-45103D01*
X68996Y-45280D01*
X68993Y-45293D01*
X68936Y-45173D01*
X68778Y-45031D01*
X68634Y-44971D01*
X68550Y-45020D01*
X68550Y-45450D01*
X68557Y-45450D01*
X68557Y-45550D01*
X68550Y-45550D01*
X68550Y-45979D01*
X68634Y-46028D01*
X68778Y-45968D01*
X68936Y-45826D01*
X68993Y-45706D01*
X68996Y-45719D01*
X69114Y-45896D01*
X69291Y-46014D01*
X69500Y-46055D01*
X69708Y-46014D01*
X69885Y-45896D01*
X69954Y-45791D01*
X69954Y-46344D01*
X69992Y-46436D01*
X70063Y-46506D01*
X70155Y-46544D01*
X70202Y-46544D01*
X70114Y-46603D01*
X69996Y-46780D01*
X69955Y-46989D01*
X69955Y-47010D01*
X69996Y-47219D01*
X70114Y-47396D01*
X70270Y-47500D01*
X70114Y-47603D01*
X69996Y-47780D01*
X69955Y-47989D01*
X69955Y-48010D01*
X69996Y-48219D01*
X70114Y-48396D01*
X70280Y-48507D01*
X70221Y-48531D01*
X70063Y-48673D01*
X69971Y-48865D01*
X70019Y-48950D01*
X70450Y-48950D01*
X70450Y-48942D01*
X70550Y-48942D01*
X70550Y-48950D01*
X70980Y-48950D01*
X71028Y-48865D01*
X70936Y-48673D01*
X70778Y-48531D01*
X70719Y-48507D01*
X70885Y-48396D01*
X71003Y-48219D01*
X71045Y-48010D01*
X71045Y-47989D01*
X71003Y-47780D01*
X70885Y-47603D01*
X70729Y-47500D01*
X70885Y-47396D01*
X71003Y-47219D01*
X71045Y-47010D01*
X71045Y-46989D01*
X71003Y-46780D01*
X70885Y-46603D01*
X70797Y-46545D01*
X70844Y-46545D01*
X70936Y-46507D01*
X71006Y-46436D01*
X71044Y-46344D01*
X71045Y-46245D01*
X71045Y-53700D01*
X71028Y-53700D01*
X71028Y-49134D01*
X70980Y-49050D01*
X70550Y-49050D01*
X70550Y-49479D01*
X70634Y-49528D01*
X70778Y-49468D01*
X70936Y-49326D01*
X71028Y-49134D01*
X71028Y-53700D01*
X70450Y-53700D01*
X70450Y-49479D01*
X70450Y-49050D01*
X70019Y-49050D01*
X69971Y-49134D01*
X70063Y-49326D01*
X70221Y-49468D01*
X70365Y-49528D01*
X70450Y-49479D01*
X70450Y-53700D01*
X69823Y-53700D01*
X70212Y-53311D01*
X70430Y-52785D01*
X70431Y-52216D01*
X70213Y-51690D01*
X70045Y-51521D01*
X70045Y-49510D01*
X70045Y-49489D01*
X70003Y-49280D01*
X69885Y-49103D01*
X69708Y-48985D01*
X69500Y-48944D01*
X69291Y-48985D01*
X69114Y-49103D01*
X69000Y-49275D01*
X68885Y-49103D01*
X68708Y-48985D01*
X68500Y-48944D01*
X68450Y-48954D01*
X68450Y-45979D01*
X68450Y-45550D01*
X68450Y-45450D01*
X68450Y-45020D01*
X68365Y-44971D01*
X68221Y-45031D01*
X68063Y-45173D01*
X67971Y-45365D01*
X68019Y-45450D01*
X68450Y-45450D01*
X68450Y-45550D01*
X68019Y-45550D01*
X67971Y-45634D01*
X68063Y-45826D01*
X68221Y-45968D01*
X68365Y-46028D01*
X68450Y-45979D01*
X68450Y-48954D01*
X68291Y-48985D01*
X68114Y-49103D01*
X67996Y-49280D01*
X67955Y-49489D01*
X67955Y-49510D01*
X67996Y-49719D01*
X68114Y-49896D01*
X68291Y-50014D01*
X68500Y-50055D01*
X68708Y-50014D01*
X68885Y-49896D01*
X69000Y-49724D01*
X69114Y-49896D01*
X69291Y-50014D01*
X69500Y-50055D01*
X69708Y-50014D01*
X69885Y-49896D01*
X70003Y-49719D01*
X70045Y-49510D01*
X70045Y-51521D01*
X69811Y-51287D01*
X69285Y-51069D01*
X68716Y-51068D01*
X68190Y-51286D01*
X67800Y-51675D01*
X67800Y-36823D01*
X68188Y-37212D01*
X68714Y-37430D01*
X69283Y-37431D01*
X69809Y-37213D01*
X70212Y-36811D01*
X70430Y-36285D01*
X70431Y-35716D01*
X70213Y-35190D01*
X69824Y-34800D01*
X84676Y-34800D01*
X84287Y-35188D01*
X84069Y-35714D01*
X84068Y-36283D01*
X84286Y-36809D01*
X84688Y-37212D01*
X85214Y-37430D01*
X85783Y-37431D01*
X86309Y-37213D01*
X86700Y-36824D01*
X86700Y-45886D01*
X86604Y-45850D01*
X86348Y-45860D01*
X86155Y-45940D01*
X86116Y-46045D01*
X86500Y-46429D01*
X86505Y-46423D01*
X86576Y-46494D01*
X86570Y-46500D01*
X86576Y-46505D01*
X86505Y-46576D01*
X86500Y-46570D01*
X86429Y-46641D01*
X86429Y-46500D01*
X86045Y-46116D01*
X85940Y-46155D01*
X85850Y-46395D01*
X85860Y-46651D01*
X85940Y-46844D01*
X86045Y-46883D01*
X86429Y-46500D01*
X86429Y-46641D01*
X86116Y-46954D01*
X86155Y-47059D01*
X86395Y-47149D01*
X86651Y-47139D01*
X86700Y-47119D01*
X86700Y-47854D01*
X86055Y-47854D01*
X85963Y-47892D01*
X85893Y-47963D01*
X85855Y-48055D01*
X85854Y-48154D01*
X85854Y-48944D01*
X85892Y-49036D01*
X85963Y-49106D01*
X86055Y-49144D01*
X86154Y-49145D01*
X86700Y-49145D01*
X86700Y-51676D01*
X86700Y-51676D01*
G37*
G54D30*
X86700Y-51676D02*
X86311Y-51287D01*
X85785Y-51069D01*
X85545Y-51068D01*
X85545Y-43745D01*
X85545Y-42605D01*
X85507Y-42513D01*
X85493Y-42500D01*
X85506Y-42486D01*
X85544Y-42394D01*
X85545Y-42295D01*
X85545Y-41155D01*
X85507Y-41063D01*
X85436Y-40993D01*
X85344Y-40955D01*
X85245Y-40954D01*
X84655Y-40954D01*
X84563Y-40992D01*
X84493Y-41063D01*
X84455Y-41155D01*
X84454Y-41254D01*
X84454Y-42394D01*
X84492Y-42486D01*
X84506Y-42499D01*
X84493Y-42513D01*
X84455Y-42605D01*
X84454Y-42704D01*
X84454Y-43844D01*
X84492Y-43936D01*
X84563Y-44006D01*
X84655Y-44044D01*
X84754Y-44045D01*
X85344Y-44045D01*
X85436Y-44007D01*
X85506Y-43936D01*
X85544Y-43844D01*
X85545Y-43745D01*
X85545Y-51068D01*
X85216Y-51068D01*
X84690Y-51286D01*
X84287Y-51688D01*
X84069Y-52214D01*
X84068Y-52783D01*
X84286Y-53309D01*
X84675Y-53700D01*
X83545Y-53700D01*
X83545Y-40510D01*
X83545Y-40489D01*
X83503Y-40280D01*
X83385Y-40103D01*
X83208Y-39985D01*
X83106Y-39965D01*
X83106Y-35500D01*
X83061Y-35272D01*
X82932Y-35079D01*
X82739Y-34950D01*
X82511Y-34905D01*
X82488Y-34905D01*
X82260Y-34950D01*
X82067Y-35079D01*
X81938Y-35272D01*
X81893Y-35500D01*
X81938Y-35727D01*
X82067Y-35920D01*
X82260Y-36049D01*
X82488Y-36095D01*
X82511Y-36095D01*
X82739Y-36049D01*
X82932Y-35920D01*
X83061Y-35727D01*
X83106Y-35500D01*
X83106Y-39965D01*
X83000Y-39944D01*
X82791Y-39985D01*
X82614Y-40103D01*
X82500Y-40275D01*
X82385Y-40103D01*
X82208Y-39985D01*
X82000Y-39944D01*
X81791Y-39985D01*
X81614Y-40103D01*
X81496Y-40280D01*
X81455Y-40489D01*
X81455Y-40510D01*
X81496Y-40719D01*
X81614Y-40896D01*
X81791Y-41014D01*
X82000Y-41055D01*
X82208Y-41014D01*
X82385Y-40896D01*
X82500Y-40724D01*
X82614Y-40896D01*
X82791Y-41014D01*
X83000Y-41055D01*
X83208Y-41014D01*
X83385Y-40896D01*
X83503Y-40719D01*
X83545Y-40510D01*
X83545Y-53700D01*
X83528Y-53700D01*
X83528Y-44634D01*
X83528Y-44365D01*
X83436Y-44173D01*
X83278Y-44031D01*
X83134Y-43971D01*
X83050Y-44020D01*
X83050Y-44450D01*
X83480Y-44450D01*
X83528Y-44365D01*
X83528Y-44634D01*
X83480Y-44550D01*
X83050Y-44550D01*
X83050Y-44979D01*
X83134Y-45028D01*
X83278Y-44968D01*
X83436Y-44826D01*
X83528Y-44634D01*
X83528Y-53700D01*
X82950Y-53700D01*
X82950Y-44979D01*
X82950Y-44550D01*
X82942Y-44550D01*
X82942Y-44450D01*
X82950Y-44450D01*
X82950Y-44020D01*
X82865Y-43971D01*
X82721Y-44031D01*
X82563Y-44173D01*
X82506Y-44293D01*
X82503Y-44280D01*
X82385Y-44103D01*
X82208Y-43985D01*
X82000Y-43944D01*
X81791Y-43985D01*
X81614Y-44103D01*
X81545Y-44208D01*
X81545Y-44010D01*
X81545Y-43989D01*
X81503Y-43780D01*
X81385Y-43603D01*
X81229Y-43500D01*
X81385Y-43396D01*
X81503Y-43219D01*
X81545Y-43010D01*
X81545Y-42989D01*
X81503Y-42780D01*
X81385Y-42603D01*
X81229Y-42500D01*
X81385Y-42396D01*
X81503Y-42219D01*
X81545Y-42010D01*
X81545Y-41989D01*
X81503Y-41780D01*
X81385Y-41603D01*
X81229Y-41500D01*
X81385Y-41396D01*
X81503Y-41219D01*
X81545Y-41010D01*
X81545Y-40989D01*
X81503Y-40780D01*
X81385Y-40603D01*
X81208Y-40485D01*
X81045Y-40453D01*
X81045Y-39245D01*
X81045Y-38655D01*
X81007Y-38563D01*
X80936Y-38493D01*
X80844Y-38455D01*
X80745Y-38454D01*
X80595Y-38454D01*
X80595Y-36295D01*
X80595Y-35605D01*
X80557Y-35513D01*
X80486Y-35443D01*
X80394Y-35405D01*
X80295Y-35404D01*
X79605Y-35404D01*
X79513Y-35442D01*
X79443Y-35513D01*
X79421Y-35565D01*
X79392Y-35536D01*
X79347Y-35581D01*
X79314Y-35481D01*
X79092Y-35400D01*
X78856Y-35410D01*
X78685Y-35481D01*
X78652Y-35581D01*
X79000Y-35929D01*
X79005Y-35923D01*
X79076Y-35994D01*
X79070Y-36000D01*
X79076Y-36005D01*
X79005Y-36076D01*
X79000Y-36070D01*
X78929Y-36141D01*
X78929Y-36000D01*
X78581Y-35652D01*
X78500Y-35678D01*
X78418Y-35652D01*
X78347Y-35722D01*
X78347Y-35581D01*
X78314Y-35481D01*
X78092Y-35400D01*
X77856Y-35410D01*
X77685Y-35481D01*
X77652Y-35581D01*
X78000Y-35929D01*
X78347Y-35581D01*
X78347Y-35722D01*
X78070Y-36000D01*
X78418Y-36347D01*
X78500Y-36321D01*
X78581Y-36347D01*
X78929Y-36000D01*
X78929Y-36141D01*
X78652Y-36418D01*
X78685Y-36518D01*
X78907Y-36599D01*
X79143Y-36589D01*
X79314Y-36518D01*
X79347Y-36418D01*
X79347Y-36418D01*
X79392Y-36463D01*
X79421Y-36434D01*
X79442Y-36486D01*
X79513Y-36556D01*
X79605Y-36594D01*
X79704Y-36595D01*
X80394Y-36595D01*
X80486Y-36557D01*
X80556Y-36486D01*
X80594Y-36394D01*
X80595Y-36295D01*
X80595Y-38454D01*
X79605Y-38454D01*
X79513Y-38492D01*
X79500Y-38506D01*
X79486Y-38492D01*
X79394Y-38454D01*
X79347Y-38454D01*
X78887Y-38455D01*
X78825Y-38517D01*
X78825Y-38950D01*
X78832Y-38950D01*
X78832Y-39050D01*
X78825Y-39050D01*
X78825Y-39482D01*
X78887Y-39545D01*
X79394Y-39545D01*
X79486Y-39507D01*
X79499Y-39493D01*
X79513Y-39506D01*
X79605Y-39544D01*
X79704Y-39545D01*
X80844Y-39545D01*
X80936Y-39507D01*
X81006Y-39436D01*
X81044Y-39344D01*
X81045Y-39245D01*
X81045Y-40453D01*
X81000Y-40444D01*
X80791Y-40485D01*
X80614Y-40603D01*
X80496Y-40780D01*
X80455Y-40989D01*
X80455Y-41010D01*
X80496Y-41219D01*
X80614Y-41396D01*
X80770Y-41500D01*
X80614Y-41603D01*
X80496Y-41780D01*
X80455Y-41989D01*
X80455Y-42010D01*
X80496Y-42219D01*
X80614Y-42396D01*
X80770Y-42500D01*
X80614Y-42603D01*
X80496Y-42780D01*
X80455Y-42989D01*
X80455Y-43010D01*
X80496Y-43219D01*
X80614Y-43396D01*
X80770Y-43500D01*
X80614Y-43603D01*
X80496Y-43780D01*
X80455Y-43989D01*
X80455Y-44010D01*
X80496Y-44219D01*
X80614Y-44396D01*
X80791Y-44514D01*
X81000Y-44555D01*
X81208Y-44514D01*
X81385Y-44396D01*
X81503Y-44219D01*
X81545Y-44010D01*
X81545Y-44208D01*
X81496Y-44280D01*
X81455Y-44489D01*
X81455Y-44510D01*
X81496Y-44719D01*
X81614Y-44896D01*
X81772Y-45001D01*
X81603Y-45114D01*
X81485Y-45291D01*
X81444Y-45500D01*
X81485Y-45708D01*
X81603Y-45885D01*
X81780Y-46003D01*
X81989Y-46045D01*
X82010Y-46045D01*
X82219Y-46003D01*
X82396Y-45885D01*
X82514Y-45708D01*
X82555Y-45500D01*
X82514Y-45291D01*
X82396Y-45114D01*
X82227Y-45001D01*
X82385Y-44896D01*
X82503Y-44719D01*
X82506Y-44706D01*
X82563Y-44826D01*
X82721Y-44968D01*
X82865Y-45028D01*
X82950Y-44979D01*
X82950Y-53700D01*
X81827Y-53700D01*
X81965Y-53561D01*
X82049Y-53359D01*
X82050Y-53141D01*
X81966Y-52938D01*
X81811Y-52784D01*
X81609Y-52700D01*
X81391Y-52699D01*
X81188Y-52783D01*
X81050Y-52922D01*
X81050Y-52900D01*
X81012Y-52808D01*
X80941Y-52738D01*
X80849Y-52700D01*
X80750Y-52699D01*
X80549Y-52699D01*
X80549Y-48080D01*
X80538Y-47864D01*
X80477Y-47715D01*
X80382Y-47688D01*
X80311Y-47759D01*
X80311Y-47617D01*
X80284Y-47522D01*
X80080Y-47450D01*
X79925Y-47458D01*
X79925Y-44665D01*
X79860Y-44509D01*
X79741Y-44389D01*
X79584Y-44325D01*
X79415Y-44324D01*
X79259Y-44389D01*
X79249Y-44400D01*
X78751Y-44400D01*
X78741Y-44389D01*
X78725Y-44383D01*
X78725Y-39482D01*
X78725Y-39050D01*
X78725Y-38950D01*
X78725Y-38517D01*
X78662Y-38455D01*
X78347Y-38454D01*
X78347Y-36418D01*
X78000Y-36070D01*
X77929Y-36141D01*
X77929Y-36000D01*
X77581Y-35652D01*
X77481Y-35685D01*
X77400Y-35907D01*
X77410Y-36143D01*
X77481Y-36314D01*
X77581Y-36347D01*
X77929Y-36000D01*
X77929Y-36141D01*
X77652Y-36418D01*
X77685Y-36518D01*
X77907Y-36599D01*
X78143Y-36589D01*
X78314Y-36518D01*
X78347Y-36418D01*
X78347Y-38454D01*
X78155Y-38454D01*
X78063Y-38492D01*
X77993Y-38563D01*
X77955Y-38655D01*
X77954Y-38754D01*
X77955Y-38887D01*
X78017Y-38950D01*
X78725Y-38950D01*
X78725Y-39050D01*
X78017Y-39050D01*
X77955Y-39112D01*
X77954Y-39245D01*
X77955Y-39344D01*
X77993Y-39436D01*
X78063Y-39507D01*
X78155Y-39545D01*
X78662Y-39545D01*
X78725Y-39482D01*
X78725Y-44383D01*
X78584Y-44325D01*
X78545Y-44325D01*
X78545Y-41245D01*
X78545Y-40655D01*
X78507Y-40563D01*
X78436Y-40493D01*
X78344Y-40455D01*
X78245Y-40454D01*
X77655Y-40454D01*
X77563Y-40492D01*
X77493Y-40563D01*
X77455Y-40655D01*
X77454Y-40754D01*
X77454Y-41344D01*
X77492Y-41436D01*
X77563Y-41506D01*
X77655Y-41544D01*
X77702Y-41544D01*
X77614Y-41603D01*
X77496Y-41780D01*
X77455Y-41989D01*
X77455Y-42010D01*
X77496Y-42219D01*
X77614Y-42396D01*
X77770Y-42500D01*
X77614Y-42603D01*
X77496Y-42780D01*
X77455Y-42989D01*
X77455Y-43010D01*
X77496Y-43219D01*
X77614Y-43396D01*
X77780Y-43507D01*
X77721Y-43531D01*
X77563Y-43673D01*
X77471Y-43865D01*
X77519Y-43950D01*
X77950Y-43950D01*
X77950Y-43942D01*
X78050Y-43942D01*
X78050Y-43950D01*
X78480Y-43950D01*
X78528Y-43865D01*
X78436Y-43673D01*
X78278Y-43531D01*
X78219Y-43507D01*
X78385Y-43396D01*
X78503Y-43219D01*
X78545Y-43010D01*
X78545Y-42989D01*
X78503Y-42780D01*
X78385Y-42603D01*
X78229Y-42500D01*
X78385Y-42396D01*
X78503Y-42219D01*
X78545Y-42010D01*
X78545Y-41989D01*
X78503Y-41780D01*
X78385Y-41603D01*
X78297Y-41545D01*
X78344Y-41545D01*
X78436Y-41507D01*
X78506Y-41436D01*
X78544Y-41344D01*
X78545Y-41245D01*
X78545Y-44325D01*
X78437Y-44324D01*
X78528Y-44134D01*
X78480Y-44050D01*
X78050Y-44050D01*
X78050Y-44479D01*
X78132Y-44527D01*
X78075Y-44665D01*
X78074Y-44834D01*
X78135Y-44979D01*
X78010Y-44955D01*
X77989Y-44955D01*
X77950Y-44962D01*
X77950Y-44479D01*
X77950Y-44050D01*
X77519Y-44050D01*
X77471Y-44134D01*
X77563Y-44326D01*
X77721Y-44468D01*
X77865Y-44528D01*
X77950Y-44479D01*
X77950Y-44962D01*
X77780Y-44996D01*
X77603Y-45114D01*
X77485Y-45291D01*
X77444Y-45500D01*
X77485Y-45708D01*
X77603Y-45885D01*
X77780Y-46003D01*
X77989Y-46045D01*
X78010Y-46045D01*
X78219Y-46003D01*
X78396Y-45885D01*
X78514Y-45708D01*
X78555Y-45500D01*
X78514Y-45291D01*
X78436Y-45174D01*
X78584Y-45175D01*
X78740Y-45110D01*
X78750Y-45100D01*
X79248Y-45100D01*
X79258Y-45110D01*
X79415Y-45174D01*
X79584Y-45175D01*
X79740Y-45110D01*
X79860Y-44991D01*
X79924Y-44834D01*
X79925Y-44665D01*
X79925Y-47458D01*
X79864Y-47461D01*
X79715Y-47522D01*
X79688Y-47617D01*
X80000Y-47929D01*
X80311Y-47617D01*
X80311Y-47759D01*
X80070Y-48000D01*
X80382Y-48311D01*
X80477Y-48284D01*
X80549Y-48080D01*
X80549Y-52699D01*
X80545Y-52699D01*
X80545Y-48892D01*
X80462Y-48691D01*
X80309Y-48538D01*
X80223Y-48502D01*
X80284Y-48477D01*
X80311Y-48382D01*
X80000Y-48070D01*
X79929Y-48141D01*
X79929Y-48000D01*
X79617Y-47688D01*
X79545Y-47708D01*
X79545Y-47655D01*
X79507Y-47563D01*
X79436Y-47493D01*
X79344Y-47455D01*
X79245Y-47454D01*
X78655Y-47454D01*
X78563Y-47492D01*
X78493Y-47563D01*
X78455Y-47655D01*
X78454Y-47754D01*
X78454Y-48344D01*
X78492Y-48436D01*
X78563Y-48506D01*
X78655Y-48544D01*
X78708Y-48545D01*
X78688Y-48617D01*
X79000Y-48929D01*
X79311Y-48617D01*
X79291Y-48545D01*
X79344Y-48545D01*
X79436Y-48507D01*
X79506Y-48436D01*
X79544Y-48344D01*
X79545Y-48291D01*
X79617Y-48311D01*
X79929Y-48000D01*
X79929Y-48141D01*
X79688Y-48382D01*
X79715Y-48477D01*
X79781Y-48500D01*
X79691Y-48537D01*
X79538Y-48690D01*
X79502Y-48776D01*
X79477Y-48715D01*
X79382Y-48688D01*
X79070Y-49000D01*
X79382Y-49311D01*
X79477Y-49284D01*
X79500Y-49218D01*
X79537Y-49308D01*
X79690Y-49461D01*
X79891Y-49544D01*
X80107Y-49545D01*
X80308Y-49462D01*
X80461Y-49309D01*
X80544Y-49108D01*
X80545Y-48892D01*
X80545Y-52699D01*
X80150Y-52699D01*
X80058Y-52737D01*
X79988Y-52808D01*
X79950Y-52900D01*
X79949Y-52999D01*
X79949Y-53599D01*
X79987Y-53691D01*
X79996Y-53700D01*
X79311Y-53700D01*
X79311Y-49382D01*
X79000Y-49070D01*
X78929Y-49141D01*
X78929Y-49000D01*
X78617Y-48688D01*
X78522Y-48715D01*
X78450Y-48919D01*
X78461Y-49135D01*
X78522Y-49284D01*
X78617Y-49311D01*
X78929Y-49000D01*
X78929Y-49141D01*
X78688Y-49382D01*
X78715Y-49477D01*
X78919Y-49549D01*
X79135Y-49538D01*
X79284Y-49477D01*
X79311Y-49382D01*
X79311Y-53700D01*
X77425Y-53700D01*
X77425Y-42915D01*
X77360Y-42759D01*
X77350Y-42749D01*
X77350Y-42251D01*
X77360Y-42241D01*
X77424Y-42084D01*
X77425Y-41915D01*
X77360Y-41759D01*
X77241Y-41639D01*
X77084Y-41575D01*
X76915Y-41574D01*
X76759Y-41639D01*
X76639Y-41758D01*
X76575Y-41915D01*
X76574Y-42084D01*
X76639Y-42240D01*
X76650Y-42250D01*
X76650Y-42748D01*
X76639Y-42758D01*
X76575Y-42915D01*
X76574Y-43084D01*
X76639Y-43240D01*
X76758Y-43360D01*
X76915Y-43424D01*
X77084Y-43425D01*
X77240Y-43360D01*
X77360Y-43241D01*
X77424Y-43084D01*
X77425Y-42915D01*
X77425Y-53700D01*
X76555Y-53700D01*
X76555Y-42500D01*
X76514Y-42291D01*
X76396Y-42114D01*
X76224Y-42000D01*
X76396Y-41885D01*
X76514Y-41708D01*
X76555Y-41500D01*
X76514Y-41291D01*
X76396Y-41114D01*
X76224Y-41000D01*
X76396Y-40885D01*
X76514Y-40708D01*
X76555Y-40500D01*
X76514Y-40291D01*
X76396Y-40114D01*
X76219Y-39996D01*
X76051Y-39963D01*
X76051Y-36851D01*
X76048Y-36433D01*
X75894Y-36061D01*
X75747Y-35973D01*
X75676Y-36044D01*
X75676Y-35902D01*
X75588Y-35755D01*
X75201Y-35598D01*
X74783Y-35601D01*
X74411Y-35755D01*
X74323Y-35902D01*
X75000Y-36579D01*
X75676Y-35902D01*
X75676Y-36044D01*
X75070Y-36650D01*
X75747Y-37326D01*
X75894Y-37238D01*
X76051Y-36851D01*
X76051Y-39963D01*
X76010Y-39955D01*
X75998Y-39955D01*
X76011Y-39941D01*
X76049Y-39849D01*
X76050Y-39750D01*
X76050Y-38150D01*
X76012Y-38058D01*
X75941Y-37988D01*
X75849Y-37950D01*
X75750Y-37949D01*
X75676Y-37949D01*
X75676Y-37397D01*
X75000Y-36720D01*
X74929Y-36791D01*
X74929Y-36650D01*
X74252Y-35973D01*
X74105Y-36061D01*
X73948Y-36448D01*
X73951Y-36866D01*
X74105Y-37238D01*
X74252Y-37326D01*
X74929Y-36650D01*
X74929Y-36791D01*
X74323Y-37397D01*
X74411Y-37544D01*
X74798Y-37701D01*
X75216Y-37698D01*
X75588Y-37544D01*
X75676Y-37397D01*
X75676Y-37949D01*
X74201Y-37949D01*
X74198Y-37583D01*
X74044Y-37211D01*
X73897Y-37123D01*
X73826Y-37194D01*
X73826Y-37052D01*
X73738Y-36905D01*
X73351Y-36748D01*
X72933Y-36751D01*
X72577Y-36898D01*
X72577Y-35642D01*
X72577Y-35357D01*
X72509Y-35191D01*
X72352Y-35020D01*
X72142Y-34922D01*
X72050Y-34969D01*
X72050Y-35450D01*
X72530Y-35450D01*
X72577Y-35357D01*
X72577Y-35642D01*
X72530Y-35550D01*
X72050Y-35550D01*
X72050Y-36030D01*
X72142Y-36077D01*
X72352Y-35979D01*
X72509Y-35808D01*
X72577Y-35642D01*
X72577Y-36898D01*
X72561Y-36905D01*
X72473Y-37052D01*
X73150Y-37729D01*
X73826Y-37052D01*
X73826Y-37194D01*
X73220Y-37800D01*
X73897Y-38476D01*
X73949Y-38444D01*
X73949Y-39849D01*
X73987Y-39941D01*
X74058Y-40011D01*
X74150Y-40049D01*
X74249Y-40050D01*
X75700Y-40050D01*
X75603Y-40114D01*
X75485Y-40291D01*
X75444Y-40500D01*
X75485Y-40708D01*
X75603Y-40885D01*
X75775Y-41000D01*
X75603Y-41114D01*
X75485Y-41291D01*
X75444Y-41500D01*
X75485Y-41708D01*
X75603Y-41885D01*
X75775Y-42000D01*
X75603Y-42114D01*
X75485Y-42291D01*
X75444Y-42500D01*
X75485Y-42708D01*
X75603Y-42885D01*
X75780Y-43003D01*
X75989Y-43045D01*
X76010Y-43045D01*
X76219Y-43003D01*
X76396Y-42885D01*
X76514Y-42708D01*
X76555Y-42500D01*
X76555Y-53700D01*
X76425Y-53700D01*
X76425Y-47915D01*
X76360Y-47759D01*
X76241Y-47639D01*
X76084Y-47575D01*
X75925Y-47574D01*
X75925Y-46415D01*
X75925Y-43415D01*
X75860Y-43259D01*
X75741Y-43139D01*
X75584Y-43075D01*
X75415Y-43074D01*
X75259Y-43139D01*
X75249Y-43150D01*
X74751Y-43150D01*
X74741Y-43139D01*
X74584Y-43075D01*
X74415Y-43074D01*
X74259Y-43139D01*
X74139Y-43258D01*
X74075Y-43415D01*
X74074Y-43584D01*
X74139Y-43740D01*
X74258Y-43860D01*
X74415Y-43924D01*
X74584Y-43925D01*
X74740Y-43860D01*
X74750Y-43850D01*
X75248Y-43850D01*
X75258Y-43860D01*
X75415Y-43924D01*
X75584Y-43925D01*
X75740Y-43860D01*
X75860Y-43741D01*
X75924Y-43584D01*
X75925Y-43415D01*
X75925Y-46415D01*
X75860Y-46259D01*
X75741Y-46139D01*
X75584Y-46075D01*
X75415Y-46074D01*
X75259Y-46139D01*
X75139Y-46258D01*
X75075Y-46415D01*
X75075Y-46429D01*
X74855Y-46650D01*
X74751Y-46650D01*
X74741Y-46639D01*
X74584Y-46575D01*
X74415Y-46574D01*
X74259Y-46639D01*
X74139Y-46758D01*
X74075Y-46915D01*
X74074Y-47084D01*
X74139Y-47240D01*
X74258Y-47360D01*
X74415Y-47424D01*
X74584Y-47425D01*
X74740Y-47360D01*
X74750Y-47350D01*
X75000Y-47350D01*
X75133Y-47323D01*
X75133Y-47323D01*
X75247Y-47247D01*
X75569Y-46925D01*
X75584Y-46925D01*
X75740Y-46860D01*
X75860Y-46741D01*
X75924Y-46584D01*
X75925Y-46415D01*
X75925Y-47574D01*
X75915Y-47574D01*
X75759Y-47639D01*
X75749Y-47650D01*
X75500Y-47650D01*
X75366Y-47676D01*
X75252Y-47752D01*
X74430Y-48574D01*
X74415Y-48574D01*
X74259Y-48639D01*
X74139Y-48758D01*
X74075Y-48915D01*
X74074Y-49084D01*
X74139Y-49240D01*
X74258Y-49360D01*
X74415Y-49424D01*
X74584Y-49425D01*
X74740Y-49360D01*
X74860Y-49241D01*
X74924Y-49084D01*
X74924Y-49070D01*
X75644Y-48350D01*
X75748Y-48350D01*
X75758Y-48360D01*
X75915Y-48424D01*
X76084Y-48425D01*
X76240Y-48360D01*
X76360Y-48241D01*
X76424Y-48084D01*
X76425Y-47915D01*
X76425Y-53700D01*
X74554Y-53700D01*
X74554Y-53331D01*
X74543Y-53113D01*
X74481Y-52962D01*
X74385Y-52934D01*
X74315Y-53005D01*
X74315Y-52864D01*
X74287Y-52768D01*
X74081Y-52695D01*
X74045Y-52697D01*
X74045Y-49010D01*
X74045Y-48989D01*
X74003Y-48780D01*
X73885Y-48603D01*
X73729Y-48500D01*
X73885Y-48396D01*
X74003Y-48219D01*
X74045Y-48010D01*
X74045Y-47989D01*
X74003Y-47780D01*
X73885Y-47603D01*
X73729Y-47500D01*
X73885Y-47396D01*
X74003Y-47219D01*
X74045Y-47010D01*
X74045Y-46989D01*
X74003Y-46780D01*
X73885Y-46603D01*
X73729Y-46500D01*
X73885Y-46396D01*
X74003Y-46219D01*
X74045Y-46010D01*
X74045Y-45989D01*
X74003Y-45780D01*
X73885Y-45603D01*
X73826Y-45564D01*
X73826Y-38547D01*
X73150Y-37870D01*
X73079Y-37941D01*
X73079Y-37800D01*
X72402Y-37123D01*
X72255Y-37211D01*
X72098Y-37598D01*
X72101Y-38016D01*
X72255Y-38388D01*
X72402Y-38476D01*
X73079Y-37800D01*
X73079Y-37941D01*
X72473Y-38547D01*
X72561Y-38694D01*
X72948Y-38851D01*
X73366Y-38848D01*
X73738Y-38694D01*
X73826Y-38547D01*
X73826Y-45564D01*
X73708Y-45485D01*
X73500Y-45444D01*
X73291Y-45485D01*
X73114Y-45603D01*
X72996Y-45780D01*
X72955Y-45989D01*
X72955Y-46010D01*
X72996Y-46219D01*
X73114Y-46396D01*
X73270Y-46500D01*
X73114Y-46603D01*
X72996Y-46780D01*
X72955Y-46989D01*
X72955Y-47010D01*
X72996Y-47219D01*
X73114Y-47396D01*
X73270Y-47500D01*
X73114Y-47603D01*
X72996Y-47780D01*
X72955Y-47989D01*
X72955Y-48010D01*
X72996Y-48219D01*
X73114Y-48396D01*
X73270Y-48500D01*
X73114Y-48603D01*
X72996Y-48780D01*
X72955Y-48989D01*
X72955Y-49010D01*
X72996Y-49219D01*
X73114Y-49396D01*
X73291Y-49514D01*
X73500Y-49555D01*
X73708Y-49514D01*
X73885Y-49396D01*
X74003Y-49219D01*
X74045Y-49010D01*
X74045Y-52697D01*
X73863Y-52706D01*
X73712Y-52768D01*
X73684Y-52864D01*
X74000Y-53179D01*
X74315Y-52864D01*
X74315Y-53005D01*
X74070Y-53250D01*
X74385Y-53565D01*
X74481Y-53537D01*
X74554Y-53331D01*
X74554Y-53700D01*
X74296Y-53700D01*
X74315Y-53635D01*
X74000Y-53320D01*
X73684Y-53635D01*
X73703Y-53700D01*
X73503Y-53700D01*
X73511Y-53691D01*
X73549Y-53599D01*
X73550Y-53546D01*
X73614Y-53565D01*
X73929Y-53250D01*
X73614Y-52934D01*
X73550Y-52953D01*
X73549Y-52900D01*
X73511Y-52808D01*
X73441Y-52737D01*
X73349Y-52699D01*
X73112Y-52700D01*
X73050Y-52762D01*
X73050Y-53200D01*
X73057Y-53200D01*
X73057Y-53300D01*
X73050Y-53300D01*
X73050Y-53307D01*
X72950Y-53307D01*
X72950Y-53300D01*
X72950Y-53200D01*
X72950Y-52762D01*
X72925Y-52737D01*
X72925Y-45915D01*
X72860Y-45759D01*
X72850Y-45749D01*
X72850Y-45251D01*
X72860Y-45241D01*
X72924Y-45084D01*
X72925Y-44915D01*
X72860Y-44759D01*
X72741Y-44639D01*
X72584Y-44575D01*
X72555Y-44575D01*
X72555Y-42500D01*
X72514Y-42291D01*
X72396Y-42114D01*
X72224Y-42000D01*
X72396Y-41885D01*
X72514Y-41708D01*
X72555Y-41500D01*
X72514Y-41291D01*
X72396Y-41114D01*
X72224Y-41000D01*
X72396Y-40885D01*
X72514Y-40708D01*
X72555Y-40500D01*
X72514Y-40291D01*
X72396Y-40114D01*
X72219Y-39996D01*
X72010Y-39955D01*
X71989Y-39955D01*
X71950Y-39962D01*
X71950Y-36030D01*
X71950Y-35550D01*
X71950Y-35450D01*
X71950Y-34969D01*
X71857Y-34922D01*
X71647Y-35020D01*
X71490Y-35191D01*
X71422Y-35357D01*
X71469Y-35450D01*
X71950Y-35450D01*
X71950Y-35550D01*
X71469Y-35550D01*
X71422Y-35642D01*
X71490Y-35808D01*
X71647Y-35979D01*
X71857Y-36077D01*
X71950Y-36030D01*
X71950Y-39962D01*
X71780Y-39996D01*
X71603Y-40114D01*
X71485Y-40291D01*
X71444Y-40500D01*
X71485Y-40708D01*
X71603Y-40885D01*
X71775Y-41000D01*
X71603Y-41114D01*
X71485Y-41291D01*
X71444Y-41500D01*
X71485Y-41708D01*
X71603Y-41885D01*
X71775Y-42000D01*
X71603Y-42114D01*
X71485Y-42291D01*
X71444Y-42500D01*
X71485Y-42708D01*
X71603Y-42885D01*
X71780Y-43003D01*
X71989Y-43045D01*
X72010Y-43045D01*
X72219Y-43003D01*
X72396Y-42885D01*
X72514Y-42708D01*
X72555Y-42500D01*
X72555Y-44575D01*
X72415Y-44574D01*
X72259Y-44639D01*
X72139Y-44758D01*
X72075Y-44915D01*
X72074Y-45084D01*
X72139Y-45240D01*
X72150Y-45250D01*
X72150Y-45748D01*
X72139Y-45758D01*
X72075Y-45915D01*
X72074Y-46084D01*
X72139Y-46240D01*
X72258Y-46360D01*
X72415Y-46424D01*
X72584Y-46425D01*
X72740Y-46360D01*
X72860Y-46241D01*
X72924Y-46084D01*
X72925Y-45915D01*
X72925Y-52737D01*
X72887Y-52700D01*
X72650Y-52699D01*
X72558Y-52737D01*
X72488Y-52808D01*
X72450Y-52900D01*
X72449Y-52999D01*
X72450Y-53137D01*
X72512Y-53200D01*
X72950Y-53200D01*
X72950Y-53300D01*
X72512Y-53300D01*
X72450Y-53362D01*
X72449Y-53500D01*
X72450Y-53599D01*
X72488Y-53691D01*
X72496Y-53700D01*
X71045Y-53700D01*
X71045Y-46245D01*
X71045Y-45655D01*
X71045Y-43245D01*
X71045Y-42655D01*
X71045Y-42655D01*
X71045Y-41808D01*
X71045Y-41486D01*
X71003Y-41277D01*
X70885Y-41101D01*
X70708Y-40982D01*
X70500Y-40941D01*
X70291Y-40982D01*
X70114Y-41101D01*
X70000Y-41272D01*
X69885Y-41101D01*
X69708Y-40982D01*
X69500Y-40941D01*
X69291Y-40982D01*
X69114Y-41101D01*
X69045Y-41205D01*
X69045Y-41155D01*
X69007Y-41063D01*
X68936Y-40993D01*
X68844Y-40955D01*
X68745Y-40954D01*
X68155Y-40954D01*
X68063Y-40992D01*
X67993Y-41063D01*
X67955Y-41155D01*
X67954Y-41254D01*
X67954Y-42139D01*
X67992Y-42231D01*
X68063Y-42301D01*
X68155Y-42339D01*
X68254Y-42340D01*
X68844Y-42340D01*
X68936Y-42302D01*
X69006Y-42231D01*
X69044Y-42139D01*
X69045Y-42089D01*
X69114Y-42193D01*
X69291Y-42312D01*
X69500Y-42353D01*
X69708Y-42312D01*
X69885Y-42193D01*
X70000Y-42022D01*
X70114Y-42193D01*
X70291Y-42312D01*
X70500Y-42353D01*
X70708Y-42312D01*
X70885Y-42193D01*
X71003Y-42017D01*
X71045Y-41808D01*
X71045Y-42655D01*
X71007Y-42563D01*
X70936Y-42493D01*
X70844Y-42455D01*
X70745Y-42454D01*
X69605Y-42454D01*
X69513Y-42492D01*
X69500Y-42506D01*
X69486Y-42493D01*
X69394Y-42455D01*
X69295Y-42454D01*
X68155Y-42454D01*
X68063Y-42492D01*
X67993Y-42563D01*
X67955Y-42655D01*
X67954Y-42754D01*
X67954Y-43344D01*
X67992Y-43436D01*
X68063Y-43506D01*
X68155Y-43544D01*
X68254Y-43545D01*
X69394Y-43545D01*
X69486Y-43507D01*
X69499Y-43493D01*
X69513Y-43506D01*
X69605Y-43544D01*
X69704Y-43545D01*
X70844Y-43545D01*
X70936Y-43507D01*
X71006Y-43436D01*
X71044Y-43344D01*
X71045Y-43245D01*
X71045Y-45655D01*
X71007Y-45563D01*
X70936Y-45493D01*
X70844Y-45455D01*
X70745Y-45454D01*
X70155Y-45454D01*
X70063Y-45492D01*
X70044Y-45511D01*
X70045Y-45510D01*
X70045Y-45489D01*
X70003Y-45280D01*
X69885Y-45103D01*
X69708Y-44985D01*
X69500Y-44944D01*
X69291Y-44985D01*
X69114Y-45103D01*
X68996Y-45280D01*
X68993Y-45293D01*
X68936Y-45173D01*
X68778Y-45031D01*
X68634Y-44971D01*
X68550Y-45020D01*
X68550Y-45450D01*
X68557Y-45450D01*
X68557Y-45550D01*
X68550Y-45550D01*
X68550Y-45979D01*
X68634Y-46028D01*
X68778Y-45968D01*
X68936Y-45826D01*
X68993Y-45706D01*
X68996Y-45719D01*
X69114Y-45896D01*
X69291Y-46014D01*
X69500Y-46055D01*
X69708Y-46014D01*
X69885Y-45896D01*
X69954Y-45791D01*
X69954Y-46344D01*
X69992Y-46436D01*
X70063Y-46506D01*
X70155Y-46544D01*
X70202Y-46544D01*
X70114Y-46603D01*
X69996Y-46780D01*
X69955Y-46989D01*
X69955Y-47010D01*
X69996Y-47219D01*
X70114Y-47396D01*
X70270Y-47500D01*
X70114Y-47603D01*
X69996Y-47780D01*
X69955Y-47989D01*
X69955Y-48010D01*
X69996Y-48219D01*
X70114Y-48396D01*
X70280Y-48507D01*
X70221Y-48531D01*
X70063Y-48673D01*
X69971Y-48865D01*
X70019Y-48950D01*
X70450Y-48950D01*
X70450Y-48942D01*
X70550Y-48942D01*
X70550Y-48950D01*
X70980Y-48950D01*
X71028Y-48865D01*
X70936Y-48673D01*
X70778Y-48531D01*
X70719Y-48507D01*
X70885Y-48396D01*
X71003Y-48219D01*
X71045Y-48010D01*
X71045Y-47989D01*
X71003Y-47780D01*
X70885Y-47603D01*
X70729Y-47500D01*
X70885Y-47396D01*
X71003Y-47219D01*
X71045Y-47010D01*
X71045Y-46989D01*
X71003Y-46780D01*
X70885Y-46603D01*
X70797Y-46545D01*
X70844Y-46545D01*
X70936Y-46507D01*
X71006Y-46436D01*
X71044Y-46344D01*
X71045Y-46245D01*
X71045Y-53700D01*
X71028Y-53700D01*
X71028Y-49134D01*
X70980Y-49050D01*
X70550Y-49050D01*
X70550Y-49479D01*
X70634Y-49528D01*
X70778Y-49468D01*
X70936Y-49326D01*
X71028Y-49134D01*
X71028Y-53700D01*
X70450Y-53700D01*
X70450Y-49479D01*
X70450Y-49050D01*
X70019Y-49050D01*
X69971Y-49134D01*
X70063Y-49326D01*
X70221Y-49468D01*
X70365Y-49528D01*
X70450Y-49479D01*
X70450Y-53700D01*
X69823Y-53700D01*
X70212Y-53311D01*
X70430Y-52785D01*
X70431Y-52216D01*
X70213Y-51690D01*
X70045Y-51521D01*
X70045Y-49510D01*
X70045Y-49489D01*
X70003Y-49280D01*
X69885Y-49103D01*
X69708Y-48985D01*
X69500Y-48944D01*
X69291Y-48985D01*
X69114Y-49103D01*
X69000Y-49275D01*
X68885Y-49103D01*
X68708Y-48985D01*
X68500Y-48944D01*
X68450Y-48954D01*
X68450Y-45979D01*
X68450Y-45550D01*
X68450Y-45450D01*
X68450Y-45020D01*
X68365Y-44971D01*
X68221Y-45031D01*
X68063Y-45173D01*
X67971Y-45365D01*
X68019Y-45450D01*
X68450Y-45450D01*
X68450Y-45550D01*
X68019Y-45550D01*
X67971Y-45634D01*
X68063Y-45826D01*
X68221Y-45968D01*
X68365Y-46028D01*
X68450Y-45979D01*
X68450Y-48954D01*
X68291Y-48985D01*
X68114Y-49103D01*
X67996Y-49280D01*
X67955Y-49489D01*
X67955Y-49510D01*
X67996Y-49719D01*
X68114Y-49896D01*
X68291Y-50014D01*
X68500Y-50055D01*
X68708Y-50014D01*
X68885Y-49896D01*
X69000Y-49724D01*
X69114Y-49896D01*
X69291Y-50014D01*
X69500Y-50055D01*
X69708Y-50014D01*
X69885Y-49896D01*
X70003Y-49719D01*
X70045Y-49510D01*
X70045Y-51521D01*
X69811Y-51287D01*
X69285Y-51069D01*
X68716Y-51068D01*
X68190Y-51286D01*
X67800Y-51675D01*
X67800Y-36823D01*
X68188Y-37212D01*
X68714Y-37430D01*
X69283Y-37431D01*
X69809Y-37213D01*
X70212Y-36811D01*
X70430Y-36285D01*
X70431Y-35716D01*
X70213Y-35190D01*
X69824Y-34800D01*
X84676Y-34800D01*
X84287Y-35188D01*
X84069Y-35714D01*
X84068Y-36283D01*
X84286Y-36809D01*
X84688Y-37212D01*
X85214Y-37430D01*
X85783Y-37431D01*
X86309Y-37213D01*
X86700Y-36824D01*
X86700Y-45886D01*
X86604Y-45850D01*
X86348Y-45860D01*
X86155Y-45940D01*
X86116Y-46045D01*
X86500Y-46429D01*
X86505Y-46423D01*
X86576Y-46494D01*
X86570Y-46500D01*
X86576Y-46505D01*
X86505Y-46576D01*
X86500Y-46570D01*
X86429Y-46641D01*
X86429Y-46500D01*
X86045Y-46116D01*
X85940Y-46155D01*
X85850Y-46395D01*
X85860Y-46651D01*
X85940Y-46844D01*
X86045Y-46883D01*
X86429Y-46500D01*
X86429Y-46641D01*
X86116Y-46954D01*
X86155Y-47059D01*
X86395Y-47149D01*
X86651Y-47139D01*
X86700Y-47119D01*
X86700Y-47854D01*
X86055Y-47854D01*
X85963Y-47892D01*
X85893Y-47963D01*
X85855Y-48055D01*
X85854Y-48154D01*
X85854Y-48944D01*
X85892Y-49036D01*
X85963Y-49106D01*
X86055Y-49144D01*
X86154Y-49145D01*
X86700Y-49145D01*
X86700Y-51676D01*
M02*
