G04 (created by PCBNEW (2013-07-07 BZR 4022)-stable) date Wed 10 May 2017 02:19:22 AM CDT*
%MOIN*%
G04 Gerber Fmt 3.4, Leading zero omitted, Abs format*
%FSLAX34Y34*%
G01*
G70*
G90*
G04 APERTURE LIST*
%ADD10C,0.00590551*%
%ADD11R,0.059X0.059*%
%ADD12O,0.059X0.059*%
%ADD13R,0.16X0.16*%
%ADD14C,0.16*%
%ADD15O,0.059X0.0885*%
%ADD16R,0.059X0.0885*%
%ADD17O,0.069X0.069*%
%ADD18C,0.23622*%
%ADD19R,0.069X0.069*%
%ADD20C,0.069*%
%ADD21C,0.059*%
%ADD22R,0.059X0.114*%
%ADD23R,0.114X0.059*%
%ADD24R,0.079X0.079*%
%ADD25C,0.079*%
%ADD26R,0.06X0.06*%
%ADD27C,0.06*%
%ADD28C,0.035*%
%ADD29C,0.01*%
%ADD30C,0.02*%
%ADD31C,0.04*%
G04 APERTURE END LIST*
G54D10*
G54D11*
X78000Y-41000D03*
G54D12*
X78000Y-42000D03*
X78000Y-43000D03*
X78000Y-44000D03*
X81000Y-44000D03*
X81000Y-43000D03*
X81000Y-41000D03*
X81000Y-42000D03*
X82000Y-45500D03*
X78000Y-45500D03*
X82000Y-44500D03*
X82000Y-40500D03*
X83000Y-40500D03*
X83000Y-44500D03*
X72000Y-40500D03*
X76000Y-40500D03*
X72000Y-42500D03*
X76000Y-42500D03*
X76000Y-41500D03*
X72000Y-41500D03*
G54D13*
X75000Y-39000D03*
G54D14*
X75000Y-36650D03*
X73150Y-37800D03*
G54D15*
X69500Y-41647D03*
X70500Y-41647D03*
G54D16*
X68500Y-41647D03*
G54D17*
X72000Y-35500D03*
X82500Y-35500D03*
G54D18*
X69000Y-36000D03*
X85500Y-36000D03*
X69000Y-52500D03*
X85500Y-52500D03*
G54D19*
X80000Y-36000D03*
G54D20*
X78000Y-36000D03*
X79000Y-36000D03*
G54D11*
X79000Y-48000D03*
G54D21*
X80000Y-49000D03*
X80000Y-48000D03*
X79000Y-49000D03*
G54D22*
X85000Y-43225D03*
X85000Y-41775D03*
G54D23*
X80225Y-39000D03*
X78775Y-39000D03*
X70225Y-43000D03*
X68775Y-43000D03*
G54D12*
X69500Y-45500D03*
X69500Y-49500D03*
X68500Y-49500D03*
X68500Y-45500D03*
G54D11*
X70500Y-46000D03*
G54D12*
X70500Y-47000D03*
X70500Y-48000D03*
X70500Y-49000D03*
X73500Y-49000D03*
X73500Y-48000D03*
X73500Y-46000D03*
X73500Y-47000D03*
G54D24*
X86500Y-48500D03*
G54D25*
X86500Y-46500D03*
G54D26*
X80500Y-53250D03*
G54D27*
X81500Y-53250D03*
G54D26*
X73000Y-53250D03*
G54D27*
X74000Y-53250D03*
G54D28*
X76000Y-48000D03*
X74500Y-49000D03*
X77000Y-42000D03*
X77000Y-43000D03*
X75500Y-43500D03*
X74500Y-43500D03*
X72500Y-45000D03*
X72500Y-46000D03*
X79500Y-44750D03*
X78500Y-44750D03*
X75500Y-46500D03*
X74500Y-47000D03*
G54D29*
X72000Y-42500D02*
X71500Y-42500D01*
X71000Y-43000D02*
X70500Y-43000D01*
X71500Y-42500D02*
X71000Y-43000D01*
X70500Y-41500D02*
X70500Y-43000D01*
X72000Y-40500D02*
X69000Y-40500D01*
X68500Y-41000D02*
X68500Y-41500D01*
X69000Y-40500D02*
X68500Y-41000D01*
X68500Y-41500D02*
X68500Y-43000D01*
X72000Y-41500D02*
X71500Y-41500D01*
X70000Y-41000D02*
X69500Y-41500D01*
X70500Y-41000D02*
X70000Y-41000D01*
X71000Y-41000D02*
X70500Y-41000D01*
X71500Y-41500D02*
X71000Y-41000D01*
G54D30*
X70500Y-46000D02*
X70500Y-47000D01*
X69500Y-49500D02*
X69500Y-48500D01*
X70000Y-48000D02*
X70500Y-48000D01*
X69500Y-48500D02*
X70000Y-48000D01*
X68500Y-49500D02*
X69500Y-49500D01*
X73500Y-49000D02*
X74500Y-49000D01*
X76000Y-48000D02*
X79000Y-48000D01*
X78000Y-45500D02*
X79000Y-45500D01*
X78000Y-43000D02*
X78500Y-43000D01*
X79000Y-43500D02*
X79000Y-45500D01*
X79000Y-45500D02*
X79000Y-48000D01*
X78500Y-43000D02*
X79000Y-43500D01*
X86500Y-48500D02*
X81000Y-48500D01*
X80500Y-53250D02*
X81500Y-53250D01*
X79000Y-48000D02*
X79000Y-47500D01*
X81000Y-48000D02*
X81000Y-48500D01*
X81000Y-47500D02*
X81000Y-48000D01*
X80500Y-47000D02*
X81000Y-47500D01*
X80000Y-47000D02*
X80500Y-47000D01*
X79500Y-47000D02*
X80000Y-47000D01*
X79000Y-47500D02*
X79500Y-47000D01*
X80500Y-53000D02*
X80500Y-53250D01*
X81000Y-52500D02*
X80500Y-53000D01*
X81000Y-48500D02*
X81000Y-52500D01*
X73500Y-48000D02*
X73000Y-48000D01*
X77000Y-42000D02*
X78000Y-42000D01*
X76500Y-43500D02*
X77000Y-43000D01*
X75500Y-43500D02*
X76500Y-43500D01*
X74000Y-43500D02*
X74500Y-43500D01*
X72500Y-45000D02*
X74000Y-43500D01*
X72500Y-47500D02*
X72500Y-46000D01*
X73000Y-48000D02*
X72500Y-47500D01*
X78000Y-42000D02*
X78500Y-42000D01*
X82000Y-42000D02*
X82000Y-40500D01*
X81500Y-42500D02*
X82000Y-42000D01*
X79500Y-42500D02*
X81500Y-42500D01*
X79000Y-42500D02*
X79500Y-42500D01*
X78500Y-42000D02*
X79000Y-42500D01*
X85000Y-41500D02*
X85000Y-41000D01*
X84500Y-40500D02*
X83000Y-40500D01*
X85000Y-41000D02*
X84500Y-40500D01*
X82000Y-40500D02*
X83000Y-40500D01*
X73500Y-47000D02*
X74500Y-47000D01*
X80750Y-45000D02*
X82000Y-45000D01*
X80500Y-44750D02*
X80750Y-45000D01*
X80250Y-44750D02*
X80500Y-44750D01*
X79500Y-44750D02*
X80250Y-44750D01*
X77250Y-44750D02*
X78500Y-44750D01*
X75500Y-46500D02*
X77250Y-44750D01*
X82000Y-45500D02*
X82000Y-45000D01*
X82000Y-45000D02*
X82000Y-44500D01*
X85000Y-43500D02*
X82000Y-43500D01*
X81000Y-43000D02*
X81500Y-43000D01*
X82000Y-43500D02*
X82000Y-44500D01*
X81500Y-43000D02*
X82000Y-43500D01*
G54D29*
X76000Y-40500D02*
X77500Y-40500D01*
X77500Y-40500D02*
X78000Y-41000D01*
X81000Y-44000D02*
X80000Y-44000D01*
X77000Y-42500D02*
X76000Y-42500D01*
X78000Y-42500D02*
X77000Y-42500D01*
X78500Y-42500D02*
X78000Y-42500D01*
X79000Y-43000D02*
X78500Y-42500D01*
X79500Y-43500D02*
X79000Y-43000D01*
X80000Y-44000D02*
X79500Y-43500D01*
G54D31*
X78750Y-37250D02*
X80000Y-36000D01*
X82500Y-35500D02*
X80500Y-35500D01*
X80500Y-35500D02*
X80000Y-36000D01*
G54D29*
X76000Y-41500D02*
X75000Y-41500D01*
G54D30*
X73500Y-46000D02*
X75000Y-46000D01*
G54D31*
X75000Y-39000D02*
X75000Y-40500D01*
X75000Y-40500D02*
X75000Y-41500D01*
X75000Y-41500D02*
X75000Y-46000D01*
X80000Y-50000D02*
X80000Y-49000D01*
X75000Y-46000D02*
X75000Y-48500D01*
X75000Y-48500D02*
X77000Y-50500D01*
X77000Y-50500D02*
X79500Y-50500D01*
X79500Y-50500D02*
X80000Y-50000D01*
G54D30*
X69500Y-45500D02*
X71500Y-45500D01*
X73000Y-45500D02*
X73500Y-46000D01*
X71500Y-45500D02*
X73000Y-45500D01*
X81000Y-42000D02*
X79500Y-42000D01*
G54D31*
X80500Y-39500D02*
X79500Y-40500D01*
X79500Y-40500D02*
X79500Y-42000D01*
X80500Y-39500D02*
X80500Y-39000D01*
X80500Y-39000D02*
X78750Y-37250D01*
X77000Y-39000D02*
X75000Y-39000D01*
X78750Y-37250D02*
X77000Y-39000D01*
M02*
